<svg width="32" height="32" viewBox="0 0 32 32" fill="none" xmlns="http://www.w3.org/2000/svg">
<rect width="32" height="32" rx="5" fill="#3656D2"/>
<path d="M11.488 26.667C10.8951 26.667 10.388 26.4559 9.96662 26.0337C9.54529 25.6115 9.33418 25.1052 9.33329 24.515V21.3337H6.92262C6.33062 21.3337 5.82395 21.1226 5.40262 20.7003C4.98129 20.2781 4.77018 19.7715 4.76929 19.1803V14.1537C4.76929 13.3981 5.02573 12.7652 5.53862 12.255C6.05151 11.743 6.68395 11.487 7.43595 11.487H24.564C25.3195 11.487 25.9528 11.743 26.464 12.255C26.9751 12.767 27.2306 13.3999 27.2306 14.1537V19.1803C27.2306 19.7723 27.02 20.279 26.5986 20.7003C26.1773 21.1217 25.6702 21.3328 25.0773 21.3337H22.6666V24.5137C22.6666 25.1057 22.4555 25.6123 22.0333 26.0337C21.6111 26.455 21.1044 26.6661 20.5133 26.667H11.488ZM6.92262 20.0003H9.33329C9.36795 19.4377 9.59106 18.955 10.0026 18.5523C10.4142 18.1506 10.9093 17.9497 11.488 17.9497H20.5133C21.0911 17.9497 21.5857 18.151 21.9973 18.5537C22.4088 18.9555 22.632 19.4377 22.6666 20.0003H25.0773C25.3164 20.0003 25.5128 19.9235 25.6666 19.7697C25.8204 19.6159 25.8973 19.4195 25.8973 19.1803V14.1537C25.8973 13.7768 25.7697 13.4603 25.5146 13.2043C25.2595 12.9483 24.9426 12.8203 24.564 12.8203H7.43595C7.05818 12.8203 6.74173 12.9483 6.48662 13.2043C6.23151 13.4603 6.10351 13.7772 6.10262 14.155V19.1803C6.10262 19.4195 6.17951 19.6159 6.33329 19.7697C6.48707 19.9235 6.68351 20.0003 6.92262 20.0003ZM21.3333 11.4883V8.30701C21.3333 8.06701 21.2564 7.87057 21.1026 7.71768C20.9488 7.5639 20.7524 7.48701 20.5133 7.48701H11.4866C11.2475 7.48701 11.0511 7.5639 10.8973 7.71768C10.7435 7.87146 10.6666 8.0679 10.6666 8.30701V11.487H9.33329V8.30701C9.33329 7.71501 9.5444 7.2079 9.96662 6.78568C10.388 6.36346 10.8946 6.15234 11.4866 6.15234H20.5133C21.1053 6.15234 21.612 6.36346 22.0333 6.78568C22.4555 7.2079 22.6666 7.71457 22.6666 8.30568V11.487L21.3333 11.4883ZM23.488 16.155C23.8657 16.155 24.1822 16.027 24.4373 15.771C24.6924 15.515 24.8204 15.1986 24.8213 14.8217C24.8222 14.4448 24.6942 14.1279 24.4373 13.871C24.1804 13.6141 23.864 13.4861 23.488 13.487C23.112 13.4879 22.7951 13.6159 22.5373 13.871C22.2795 14.1261 22.152 14.443 22.1546 14.8217C22.1573 15.2003 22.2848 15.5168 22.5373 15.771C22.7897 16.0252 23.1066 16.1532 23.488 16.155ZM21.3333 24.5123V20.103C21.3333 19.863 21.2564 19.6661 21.1026 19.5123C20.9488 19.3586 20.7524 19.2817 20.5133 19.2817H11.4866C11.2475 19.2817 11.0511 19.3586 10.8973 19.5123C10.7435 19.667 10.6666 19.8639 10.6666 20.103V24.5137C10.6666 24.7528 10.7435 24.9492 10.8973 25.103C11.0511 25.2568 11.248 25.3337 11.488 25.3337H20.5133C20.7524 25.3337 20.9488 25.2568 21.1026 25.103C21.2564 24.9492 21.3333 24.7523 21.3333 24.5123ZM6.92262 12.8217H6.10262H25.8973H6.92262Z" fill="white"/>
</svg>
