<svg width="20" height="20" viewBox="0 0 20 20" fill="none" xmlns="http://www.w3.org/2000/svg">
<path d="M9.16675 7.50002H10.8334V5.83335H9.16675M10.0001 16.6667C6.32508 16.6667 3.33341 13.675 3.33341 10C3.33341 6.32502 6.32508 3.33335 10.0001 3.33335C13.6751 3.33335 16.6667 6.32502 16.6667 10C16.6667 13.675 13.6751 16.6667 10.0001 16.6667ZM10.0001 1.66669C8.90573 1.66669 7.8221 1.88224 6.81105 2.30102C5.80001 2.71981 4.88135 3.33364 4.10752 4.10746C2.54472 5.67027 1.66675 7.78988 1.66675 10C1.66675 12.2102 2.54472 14.3298 4.10752 15.8926C4.88135 16.6664 5.80001 17.2802 6.81105 17.699C7.8221 18.1178 8.90573 18.3334 10.0001 18.3334C12.2102 18.3334 14.3298 17.4554 15.8926 15.8926C17.4554 14.3298 18.3334 12.2102 18.3334 10C18.3334 8.90567 18.1179 7.82204 17.6991 6.81099C17.2803 5.79994 16.6665 4.88129 15.8926 4.10746C15.1188 3.33364 14.2002 2.71981 13.1891 2.30102C12.1781 1.88224 11.0944 1.66669 10.0001 1.66669ZM9.16675 14.1667H10.8334V9.16669H9.16675V14.1667Z" fill="#3656D2"/>
</svg>
