<svg width="32" height="32" viewBox="0 0 32 32" fill="none" xmlns="http://www.w3.org/2000/svg">
<path d="M15.9999 11.6667C15.0799 11.6667 14.3333 12.4133 14.3333 13.3333V13.476C14.3333 13.7412 14.2279 13.9956 14.0404 14.1831C13.8528 14.3706 13.5985 14.476 13.3333 14.476C13.068 14.476 12.8137 14.3706 12.6261 14.1831C12.4386 13.9956 12.3333 13.7412 12.3333 13.476V13.3333C12.3333 12.3609 12.7196 11.4282 13.4072 10.7406C14.0948 10.053 15.0275 9.66666 15.9999 9.66666H16.1546C16.8719 9.66699 17.5719 9.88695 18.1604 10.297C18.749 10.707 19.1979 11.2874 19.4468 11.9601C19.6957 12.6328 19.7326 13.3656 19.5526 14.06C19.3726 14.7543 18.9843 15.3769 18.4399 15.844L17.4133 16.724C17.2844 16.8358 17.181 16.9738 17.1097 17.1288C17.0384 17.2837 17.001 17.4521 16.9999 17.6227V18.3333C16.9999 18.5985 16.8946 18.8529 16.707 19.0404C16.5195 19.228 16.2651 19.3333 15.9999 19.3333C15.7347 19.3333 15.4803 19.228 15.2928 19.0404C15.1053 18.8529 14.9999 18.5985 14.9999 18.3333V17.6227C14.9999 16.6933 15.4053 15.8107 16.1106 15.2067L17.1386 14.3267C17.3732 14.1256 17.5405 13.8575 17.6181 13.5585C17.6957 13.2595 17.6799 12.9438 17.5727 12.6541C17.4655 12.3643 17.2721 12.1144 17.0186 11.9378C16.7651 11.7613 16.4635 11.6667 16.1546 11.6667H15.9999ZM15.9999 22.6667C16.3535 22.6667 16.6927 22.5262 16.9427 22.2761C17.1928 22.0261 17.3333 21.6869 17.3333 21.3333C17.3333 20.9797 17.1928 20.6406 16.9427 20.3905C16.6927 20.1405 16.3535 20 15.9999 20C15.6463 20 15.3072 20.1405 15.0571 20.3905C14.8071 20.6406 14.6666 20.9797 14.6666 21.3333C14.6666 21.6869 14.8071 22.0261 15.0571 22.2761C15.3072 22.5262 15.6463 22.6667 15.9999 22.6667Z" fill="#3656D2"/>
<path d="M4.33325 16C4.33325 12.9058 5.56242 9.93836 7.75034 7.75043C9.93826 5.56251 12.9057 4.33334 15.9999 4.33334C19.0941 4.33334 22.0616 5.56251 24.2495 7.75043C26.4374 9.93836 27.6666 12.9058 27.6666 16C27.6666 19.0942 26.4374 22.0617 24.2495 24.2496C22.0616 26.4375 19.0941 27.6667 15.9999 27.6667C12.9057 27.6667 9.93826 26.4375 7.75034 24.2496C5.56242 22.0617 4.33325 19.0942 4.33325 16ZM15.9999 6.33334C14.7305 6.33334 13.4735 6.58338 12.3006 7.06917C11.1278 7.55497 10.0622 8.26701 9.16455 9.16465C8.26692 10.0623 7.55488 11.1279 7.06908 12.3007C6.58329 13.4736 6.33325 14.7306 6.33325 16C6.33325 17.2695 6.58329 18.5265 7.06908 19.6993C7.55488 20.8721 8.26692 21.9377 9.16455 22.8354C10.0622 23.733 11.1278 24.445 12.3006 24.9308C13.4735 25.4166 14.7305 25.6667 15.9999 25.6667C18.5637 25.6667 21.0224 24.6482 22.8353 22.8354C24.6481 21.0225 25.6666 18.5638 25.6666 16C25.6666 13.4363 24.6481 10.9775 22.8353 9.16465C21.0224 7.35179 18.5637 6.33334 15.9999 6.33334Z" fill="#3656D2"/>
</svg>
