<svg width="20" height="20" viewBox="0 0 20 20" fill="none" xmlns="http://www.w3.org/2000/svg">
<g clip-path="url(#clip0_595_89768)">
<path d="M18.75 9.16699H2.08332V2.14199C2.08332 1.66699 2.525 1.25031 3.02914 1.25031H4.77082C5.2625 1.25031 5.65832 1.65031 5.6625 2.13781C4.85 2.34199 4.16668 3.09199 4.16668 3.88363V5.00031C4.16668 5.22949 4.35418 5.41699 4.58336 5.41699H7.5C7.72918 5.41699 7.91668 5.22949 7.91668 5.00031V3.88367C7.91668 3.07949 7.27918 2.34199 6.49586 2.14199C6.49586 1.19199 5.72504 0.416992 4.77086 0.416992H3.02918C2.06668 0.416992 1.25 1.20867 1.25 2.14199V9.16699C0.5625 9.16281 0.00417969 9.72117 0 10.4087C0 10.767 0.15 11.1045 0.41668 11.342V13.5253C0.41668 15.2211 1.17086 16.6753 2.39168 17.6211L1.70836 18.9795C1.60418 19.1836 1.68754 19.4336 1.89586 19.5378C2.10004 19.642 2.35004 19.5586 2.45418 19.3503L3.09586 18.0711C3.93754 18.5211 4.87918 18.7544 5.83336 18.7461H14.1667C15.1209 18.7544 16.0625 18.5211 16.9042 18.0711L17.5459 19.3503C17.65 19.5545 17.9 19.6378 18.1042 19.5378C18.3084 19.4378 18.3917 19.1836 18.2917 18.9795L17.6084 17.617C18.8292 16.6753 19.5834 15.217 19.5834 13.5211V11.3378C19.8459 11.1086 20 10.7711 20 10.417C20 9.72535 19.4417 9.16699 18.75 9.16699ZM6.07918 2.91699C6.575 2.91699 7.08336 3.40449 7.08336 3.88367V4.58367H5V3.88367C5 3.42117 5.5625 2.91699 6.07918 2.91699ZM18.75 13.5254C18.75 16.0295 16.7792 17.917 14.1667 17.917H5.83332C3.22082 17.917 1.25 16.0295 1.25 13.5254V11.667H18.75V13.5254ZM18.75 10.8337H1.2625C1.05418 10.8337 0.86668 10.6837 0.8375 10.4795C0.8 10.2212 1 10.0003 1.25 10.0003H18.7375C18.9458 10.0003 19.1333 10.1503 19.1625 10.3545C19.2 10.6129 19 10.8337 18.75 10.8337Z" fill="#404040"/>
</g>
<defs>
<clipPath id="clip0_595_89768">
<rect width="20" height="20" fill="white"/>
</clipPath>
</defs>
</svg>
