<svg width="20" height="20" viewBox="0 0 20 20" fill="none" xmlns="http://www.w3.org/2000/svg">
<g clip-path="url(#clip0_595_89774)">
<path d="M18.8819 5.92222L10.1575 0.638896C10.1091 0.60937 10.0535 0.59375 9.99684 0.59375C9.94015 0.59375 9.88454 0.60937 9.83614 0.638896L1.11739 5.92222C1.07265 5.95061 1.03613 5.99023 1.01146 6.03713C0.986785 6.08403 0.974825 6.13657 0.976766 6.18952V19.0945C0.976766 19.2671 1.09876 19.4144 1.27134 19.4144H3.13177C3.21473 19.4124 3.29352 19.3777 3.35088 19.3177C3.40823 19.2577 3.43945 19.1774 3.4377 19.0945V10.2347H16.5627V19.0945C16.561 19.1774 16.5922 19.2577 16.6495 19.3177C16.7069 19.3777 16.7857 19.4124 16.8686 19.4144H18.7291C18.9016 19.4144 19.0236 19.2671 19.0236 19.0945V6.1896C19.0254 6.13654 19.0132 6.08395 18.9884 6.03704C18.9635 5.99014 18.9268 5.95055 18.8819 5.92222ZM3.4377 9.60972V8.35972H16.5627V9.60972H3.4377ZM18.3986 18.7894H17.1877V8.05007C17.1863 7.96622 17.1522 7.88624 17.0925 7.82729C17.0329 7.76834 16.9525 7.7351 16.8686 7.73472H3.13177C3.0479 7.7351 2.96753 7.76834 2.90789 7.82729C2.84824 7.88624 2.81407 7.96622 2.8127 8.05007V18.7894H1.60177V6.36577L10.0002 1.27151L18.3986 6.36577V18.7894Z" fill="#404040"/>
<path d="M14.8543 13.7457L14.0284 11.5107C13.9538 11.3095 13.8199 11.1358 13.6443 11.0125C13.4687 10.8892 13.2598 10.8222 13.0453 10.8203H7.10209C6.88755 10.8222 6.67865 10.8892 6.50306 11.0125C6.32748 11.1358 6.1935 11.3095 6.11889 11.5107L5.30451 13.7116L4.98365 14.0143C4.82883 14.1476 4.70474 14.3129 4.61991 14.4988C4.53508 14.6847 4.49153 14.8867 4.49224 15.0911V19.0941C4.49066 19.1772 4.52204 19.2575 4.57952 19.3174C4.637 19.3774 4.71589 19.4121 4.79892 19.4141H6.88428C6.92522 19.413 6.96555 19.4039 7.00297 19.3873C7.04039 19.3706 7.07415 19.3468 7.10233 19.3171C7.1305 19.2873 7.15253 19.2523 7.16716 19.2141C7.18178 19.1758 7.18872 19.1351 7.18756 19.0941V17.9688H12.8126V19.0941C12.8114 19.1351 12.8183 19.1758 12.833 19.2141C12.8476 19.2523 12.8696 19.2873 12.8978 19.3171C12.926 19.3468 12.9597 19.3706 12.9971 19.3873C13.0346 19.4039 13.0749 19.413 13.1158 19.4141H15.2012C15.2842 19.4121 15.3631 19.3774 15.4206 19.3174C15.4781 19.2575 15.5095 19.1772 15.5079 19.0941V15.0068C15.5081 14.8159 15.4698 14.6269 15.3953 14.4512C15.3208 14.2755 15.2116 14.1166 15.0743 13.984L14.8543 13.7457ZM6.70494 11.7344C6.7346 11.652 6.78831 11.5804 6.85912 11.5288C6.92992 11.4773 7.01456 11.4482 7.10209 11.4453H13.0453C13.1328 11.4482 13.2174 11.4773 13.2882 11.5288C13.359 11.5804 13.4127 11.652 13.4424 11.7344L14.1265 13.5938H6.02076L6.70494 11.7344ZM6.56256 18.7891H5.11724V17.9688H6.56256V18.7891ZM13.4376 18.7891V17.9688H14.8829V18.7891H13.4376ZM14.8829 17.3438H5.11724V15.0911C5.11661 14.9764 5.14103 14.863 5.1888 14.7587C5.23656 14.6545 5.30651 14.5619 5.39377 14.4875C5.39736 14.4845 5.39943 14.4879 5.40291 14.4847L5.69459 14.2188H14.4286L14.627 14.4242C14.6314 14.4289 14.6331 14.4302 14.6378 14.4346C14.7155 14.5082 14.7773 14.5969 14.8195 14.6953C14.8616 14.7937 14.8832 14.8997 14.8829 15.0068V17.3438Z" fill="#404040"/>
<path d="M6.65875 14.9609H6.47852C6.23506 14.9609 6.00157 15.0577 5.82941 15.2298C5.65726 15.402 5.56055 15.6354 5.56055 15.8789C5.56055 16.1224 5.65726 16.3559 5.82941 16.528C6.00157 16.7002 6.23506 16.7969 6.47852 16.7969H6.65875C6.90221 16.7969 7.1357 16.7002 7.30785 16.528C7.48 16.3559 7.57672 16.1224 7.57672 15.8789C7.57672 15.6354 7.48 15.402 7.30785 15.2298C7.1357 15.0577 6.90221 14.9609 6.65875 14.9609ZM6.65875 16.1719H6.47852C6.40082 16.1719 6.3263 16.141 6.27136 16.0861C6.21641 16.0311 6.18555 15.9566 6.18555 15.8789C6.18555 15.8012 6.21641 15.7267 6.27136 15.6717C6.3263 15.6168 6.40082 15.5859 6.47852 15.5859H6.65875C6.73645 15.5859 6.81097 15.6168 6.86591 15.6717C6.92085 15.7267 6.95172 15.8012 6.95172 15.8789C6.95172 15.9566 6.92085 16.0311 6.86591 16.0861C6.81097 16.141 6.73645 16.1719 6.65875 16.1719Z" fill="#404040"/>
<path d="M13.5201 14.9609H13.3398C13.0964 14.9609 12.8629 15.0577 12.6907 15.2298C12.5186 15.402 12.4219 15.6354 12.4219 15.8789C12.4219 16.1224 12.5186 16.3559 12.6907 16.528C12.8629 16.7002 13.0964 16.7969 13.3398 16.7969H13.5201C13.7635 16.7969 13.997 16.7002 14.1692 16.528C14.3413 16.3559 14.438 16.1224 14.438 15.8789C14.438 15.6354 14.3413 15.402 14.1692 15.2298C13.997 15.0577 13.7635 14.9609 13.5201 14.9609ZM13.5201 16.1719H13.3398C13.2621 16.1719 13.1876 16.141 13.1327 16.0861C13.0777 16.0311 13.0469 15.9566 13.0469 15.8789C13.0469 15.8012 13.0777 15.7267 13.1327 15.6717C13.1876 15.6168 13.2621 15.5859 13.3398 15.5859H13.5201C13.5978 15.5859 13.6723 15.6168 13.7272 15.6717C13.7822 15.7267 13.813 15.8012 13.813 15.8789C13.813 15.9566 13.7822 16.0311 13.7272 16.0861C13.6723 16.141 13.5978 16.1719 13.5201 16.1719Z" fill="#404040"/>
<path d="M11.875 15.3125C11.875 15.2296 11.8421 15.1501 11.7835 15.0915C11.7249 15.0329 11.6454 15 11.5625 15H8.39844C8.31556 15 8.23607 15.0329 8.17747 15.0915C8.11886 15.1501 8.08594 15.2296 8.08594 15.3125V16.4844C8.08594 16.5673 8.11886 16.6467 8.17747 16.7053C8.23607 16.764 8.31556 16.7969 8.39844 16.7969H11.5625C11.6454 16.7969 11.7249 16.764 11.7835 16.7053C11.8421 16.6467 11.875 16.5673 11.875 16.4844V15.3125ZM11.2891 16.1719H8.71094V15.625H11.2891V16.1719Z" fill="#404040"/>
</g>
<defs>
<clipPath id="clip0_595_89774">
<rect width="20" height="20" fill="white"/>
</clipPath>
</defs>
</svg>
