<svg width="21" height="20" viewBox="0 0 21 20" fill="none" xmlns="http://www.w3.org/2000/svg">
<path d="M6.54199 6.66699C6.54199 6.32182 6.82182 6.04199 7.16699 6.04199H10.5003C10.8455 6.04199 11.1253 6.32182 11.1253 6.66699C11.1253 7.01217 10.8455 7.29199 10.5003 7.29199H7.16699C6.82182 7.29199 6.54199 7.01217 6.54199 6.66699Z" fill="#3656D2"/>
<path d="M6.54199 10C6.54199 9.65483 6.82182 9.375 7.16699 9.375H13.8337C14.1788 9.375 14.4587 9.65483 14.4587 10C14.4587 10.3452 14.1788 10.625 13.8337 10.625H7.16699C6.82182 10.625 6.54199 10.3452 6.54199 10Z" fill="#3656D2"/>
<path fill-rule="evenodd" clip-rule="evenodd" d="M8.80569 1.04199H12.195C13.3381 1.04199 14.2342 1.04198 14.9546 1.10083C15.688 1.16076 16.2939 1.28481 16.8423 1.56425C17.744 2.02364 18.477 2.75668 18.9364 3.65828C19.2158 4.20673 19.3399 4.81265 19.3998 5.54611C19.4587 6.26639 19.4587 7.16258 19.4587 8.30568V9.32049V9.44291C19.4588 10.7334 19.459 11.5207 19.2651 12.1819C18.8059 13.7479 17.5812 14.9726 16.0152 15.4317C15.354 15.6257 14.5667 15.6255 13.2762 15.6253C13.2359 15.6253 13.1952 15.6253 13.1538 15.6253H12.6965L12.6462 15.6254C11.9236 15.63 11.2197 15.8557 10.6289 16.2719L10.5879 16.3011L8.41233 17.8551C7.15858 18.7506 5.51106 17.4573 6.08328 16.0267C6.16018 15.8345 6.01858 15.6253 5.8115 15.6253H5.31004C3.229 15.6253 1.54199 13.9383 1.54199 11.8572V8.30569C1.54199 7.16259 1.54198 6.2664 1.60083 5.54611C1.66076 4.81265 1.78481 4.20673 2.06425 3.65828C2.52364 2.75668 3.25668 2.02364 4.15828 1.56425C4.70673 1.28481 5.31265 1.16076 6.04611 1.10083C6.7664 1.04198 7.66259 1.04199 8.80569 1.04199ZM6.14789 2.34668C5.49174 2.40029 5.06863 2.50332 4.72578 2.67801C4.05937 3.01756 3.51756 3.55937 3.17801 4.22578C3.00332 4.56863 2.90029 4.99174 2.84668 5.64789C2.79248 6.31134 2.79199 7.15657 2.79199 8.33366V11.8572C2.79199 13.248 3.91936 14.3753 5.31004 14.3753H5.8115C6.90292 14.3753 7.64922 15.4777 7.24388 16.491C7.1353 16.7624 7.4479 17.0078 7.68578 16.8379L9.90883 15.2501C10.7081 14.6869 11.6605 14.3817 12.6382 14.3754L12.6965 14.3753H13.1538C14.6054 14.3753 15.1972 14.369 15.6635 14.2322C16.821 13.8928 17.7262 12.9877 18.0656 11.8302C18.2023 11.3639 18.2087 10.7721 18.2087 9.32049V8.33366C18.2087 7.15657 18.2082 6.31134 18.154 5.64789C18.1003 4.99174 17.9973 4.56863 17.8227 4.22578C17.4831 3.55937 16.9412 3.01756 16.2749 2.67801C15.932 2.50332 15.5089 2.40029 14.8527 2.34668C14.1893 2.29248 13.3441 2.29199 12.167 2.29199H8.83366C7.65657 2.29199 6.81134 2.29248 6.14789 2.34668Z" fill="#3656D2"/>
</svg>
