<svg width="28" height="28" viewBox="0 0 28 28" fill="none" xmlns="http://www.w3.org/2000/svg">
<g clip-path="url(#clip0_595_89928)">
<path d="M27.9999 2.57671C27.9999 1.15591 26.844 0 25.4223 0H25.4221C24.0699 0 22.7986 0.526579 21.8427 1.48275L17.2577 6.06773L5.84919 3.38335C3.67302 2.8713 1.37786 3.77684 0.137786 5.63685C0.048065 5.77164 0 5.92994 0 6.09186C0 6.39371 0.165771 6.67142 0.431517 6.81433L10.883 12.4422L5.75242 17.5728H2.57671C1.15591 17.5728 0 18.7287 0 20.1506C0 20.4385 0.151245 20.7055 0.398405 20.8538L4.61574 23.3844L7.14609 27.6017C7.29434 27.8486 7.56137 27.9999 7.84955 27.9999C8.53848 27.9999 9.18575 27.7316 9.67196 27.2449C10.159 26.7581 10.4271 26.1108 10.4271 25.4223V22.2477L15.5577 17.1169L21.1856 27.5686C21.3287 27.8343 21.6064 28.0001 21.908 28.0001C22.07 28.0001 22.2282 27.952 22.363 27.8621C24.223 26.6222 25.1286 24.3271 24.6168 22.1509L21.9324 10.7424L26.5171 6.15745C27.4733 5.20106 27.9999 3.92979 27.9999 2.57671ZM2.10375 5.85154C3.00182 5.04106 4.26411 4.69584 5.47343 4.98017L15.8933 7.43192L12.0942 11.231L2.10375 5.85154ZM23.0197 22.5267C23.3043 23.736 22.9588 24.9983 22.1486 25.8964L16.7689 15.9057L20.568 12.1066L23.0197 22.5267ZM25.3572 4.99726L9.02682 21.3276C8.8728 21.4816 8.7865 21.6901 8.7865 21.9078V25.4223C8.7865 25.6725 8.68908 25.9077 8.51178 26.085C8.43658 26.1602 8.35092 26.2211 8.25799 26.2661L5.91691 22.3643C5.84769 22.249 5.75114 22.1522 5.63557 22.083L1.73419 19.7421C1.88586 19.4296 2.2065 19.2136 2.57671 19.2136H6.09229C6.30976 19.2136 6.51847 19.1271 6.67228 18.9733L23.0026 2.64272C23.6488 1.99651 24.508 1.64062 25.4221 1.64062H25.4232C25.9393 1.64062 26.3593 2.0606 26.3593 2.57757C26.3593 3.49165 26.0034 4.35084 25.3572 4.99726Z" fill="white"/>
</g>
<defs>
<clipPath id="clip0_595_89928">
<rect width="28" height="28" fill="white"/>
</clipPath>
</defs>
</svg>
