<svg width="26" height="26" viewBox="0 0 26 26" fill="none" xmlns="http://www.w3.org/2000/svg">
<path d="M0 0.866667C0 0.636812 0.0913121 0.416372 0.253849 0.253841C0.416385 0.0913092 0.636832 0 0.866693 0H3.46677C3.6601 5.34066e-05 3.84786 0.0647412 4.00019 0.183776C4.15252 0.302811 4.26068 0.469359 4.30747 0.656933L5.00949 3.46667H25.1341C25.2614 3.46678 25.387 3.49492 25.5022 3.54909C25.6174 3.60325 25.7192 3.68211 25.8004 3.78006C25.8817 3.87801 25.9403 3.99265 25.9723 4.11583C26.0042 4.23901 26.0086 4.36772 25.9852 4.4928L23.3851 18.3595C23.3479 18.5581 23.2425 18.7374 23.0871 18.8666C22.9317 18.9957 22.7361 19.0665 22.534 19.0667H6.93355C6.73149 19.0665 6.53585 18.9957 6.38044 18.8666C6.22504 18.7374 6.11963 18.5581 6.08245 18.3595L3.48411 4.5188L2.79075 1.73333H0.866693C0.636832 1.73333 0.416385 1.64202 0.253849 1.47949C0.0913121 1.31696 0 1.09652 0 0.866667ZM5.37697 5.2L7.6529 17.3333H21.8147L24.0906 5.2H5.37697ZM8.66693 19.0667C7.74749 19.0667 6.8657 19.4319 6.21556 20.082C5.56541 20.7322 5.20016 21.6139 5.20016 22.5333C5.20016 23.4528 5.56541 24.3345 6.21556 24.9846C6.8657 25.6348 7.74749 26 8.66693 26C9.58638 26 10.4682 25.6348 11.1183 24.9846C11.7685 24.3345 12.1337 23.4528 12.1337 22.5333C12.1337 21.6139 11.7685 20.7322 11.1183 20.082C10.4682 19.4319 9.58638 19.0667 8.66693 19.0667ZM20.8006 19.0667C19.8812 19.0667 18.9994 19.4319 18.3493 20.082C17.6991 20.7322 17.3339 21.6139 17.3339 22.5333C17.3339 23.4528 17.6991 24.3345 18.3493 24.9846C18.9994 25.6348 19.8812 26 20.8006 26C21.7201 26 22.6019 25.6348 23.252 24.9846C23.9022 24.3345 24.2674 23.4528 24.2674 22.5333C24.2674 21.6139 23.9022 20.7322 23.252 20.082C22.6019 19.4319 21.7201 19.0667 20.8006 19.0667ZM8.66693 20.8C9.12666 20.8 9.56755 20.9826 9.89262 21.3077C10.2177 21.6327 10.4003 22.0736 10.4003 22.5333C10.4003 22.993 10.2177 23.4339 9.89262 23.759C9.56755 24.084 9.12666 24.2667 8.66693 24.2667C8.20721 24.2667 7.76632 24.084 7.44125 23.759C7.11617 23.4339 6.93355 22.993 6.93355 22.5333C6.93355 22.0736 7.11617 21.6327 7.44125 21.3077C7.76632 20.9826 8.20721 20.8 8.66693 20.8ZM20.8006 20.8C21.2604 20.8 21.7013 20.9826 22.0263 21.3077C22.3514 21.6327 22.534 22.0736 22.534 22.5333C22.534 22.993 22.3514 23.4339 22.0263 23.759C21.7013 24.084 21.2604 24.2667 20.8006 24.2667C20.3409 24.2667 19.9 24.084 19.575 23.759C19.2499 23.4339 19.0673 22.993 19.0673 22.5333C19.0673 22.0736 19.2499 21.6327 19.575 21.3077C19.9 20.9826 20.3409 20.8 20.8006 20.8Z" fill="white"/>
</svg>
