<svg width="28" height="28" viewBox="0 0 28 28" fill="none" xmlns="http://www.w3.org/2000/svg">
<g clip-path="url(#clip0_595_89915)">
<path d="M14 0C10.2605 0 6.74477 1.45622 4.10047 4.10047C1.45627 6.74477 0 10.2605 0 14C0 16.1117 0.459375 18.1424 1.36544 20.0358C1.561 20.4444 2.05078 20.6172 2.45946 20.4216C2.86809 20.2261 3.04084 19.7363 2.84534 19.3276C2.04591 17.6571 1.64062 15.8646 1.64062 14C1.64062 7.18501 7.18501 1.64062 14 1.64062L14.875 0.820312L14 0Z" fill="white"/>
<path d="M14 1.64062C16.7079 1.64062 19.2828 2.50551 21.4092 4.10468L19.3624 4.37413C18.9133 4.43324 18.5971 4.84531 18.6562 5.29446C18.7153 5.74366 19.1274 6.05981 19.5765 6.0007L23.4265 5.49385C23.8756 5.43473 24.1918 5.02266 24.1327 4.57352L23.6258 0.723625C23.5667 0.274477 23.1546 -0.0417266 22.7055 0.0173906H22.7054C22.2563 0.0765078 21.9401 0.488578 21.9992 0.937726L22.2271 2.66853C19.8509 0.935539 16.9974 0 14 0V1.64062Z" fill="white"/>
<path d="M14.0002 26.3594C11.2923 26.3594 8.71742 25.4945 6.59101 23.8953L8.63774 23.6259C9.08689 23.5667 9.40309 23.1547 9.34397 22.7055C9.28486 22.2563 8.87279 21.9402 8.42364 21.9993L4.57369 22.5061C4.12454 22.5653 3.80834 22.9773 3.86746 23.4265L4.37436 27.2764C4.43347 27.7255 4.84554 28.0417 5.29469 27.9826C5.74384 27.9235 6.0601 27.5114 6.00098 27.0623L5.7731 25.3315C8.14927 27.0645 11.0028 28 14.0002 28L14.8752 27.1797L14.0002 26.3594Z" fill="white"/>
<path d="M26.6346 7.96447C26.439 7.55579 25.9492 7.38303 25.5405 7.5786C25.1319 7.77416 24.9592 8.26394 25.1547 8.67262C25.9541 10.3432 26.3594 12.1356 26.3594 14.0002C26.3594 20.8152 20.815 26.3596 14 26.3596V28.0002C17.7395 28.0002 21.2552 26.544 23.8995 23.8998C26.5437 21.2554 28 17.7398 28 14.0002C28 11.8885 27.5406 9.85781 26.6346 7.96447Z" fill="white"/>
</g>
<defs>
<clipPath id="clip0_595_89915">
<rect width="28" height="28" fill="white"/>
</clipPath>
</defs>
</svg>
