<svg width="20" height="20" viewBox="0 0 20 20" fill="none" xmlns="http://www.w3.org/2000/svg">
<path d="M8.28359 11.7166C8.12759 11.5606 7.87399 11.5606 7.71799 11.7166L5.20039 14.2342V11.9998C5.20039 11.779 5.02119 11.5998 4.80039 11.5998C4.57959 11.5998 4.40039 11.779 4.40039 11.9998V15.1998C4.40039 15.2518 4.41079 15.3038 4.43159 15.3526C4.47159 15.4502 4.54999 15.5286 4.64839 15.5694C4.69639 15.5886 4.74839 15.5998 4.80039 15.5998H8.00039C8.22119 15.5998 8.40039 15.4206 8.40039 15.1998C8.40039 14.979 8.22119 14.7998 8.00039 14.7998H5.76599L8.28279 12.283C8.43959 12.1262 8.43959 11.8734 8.28359 11.7166Z" fill="#3656D2"/>
<path d="M15.3524 4.43079C15.3036 4.41159 15.2516 4.40039 15.1996 4.40039H11.9996C11.7788 4.40039 11.5996 4.57959 11.5996 4.80039C11.5996 5.02119 11.7788 5.20039 11.9996 5.20039H14.234L11.7172 7.71719C11.5612 7.87319 11.5612 8.12679 11.7172 8.28279C11.7948 8.36119 11.8972 8.40039 11.9996 8.40039C12.102 8.40039 12.2044 8.36119 12.2828 8.28359L14.7996 5.76599V8.00039C14.7996 8.22119 14.9788 8.40039 15.1996 8.40039C15.4204 8.40039 15.5996 8.22119 15.5996 8.00039V4.80039C15.5996 4.74839 15.5892 4.69639 15.5684 4.64759C15.5284 4.54999 15.45 4.47159 15.3524 4.43079Z" fill="#3656D2"/>
<path d="M16 2H4C2.8976 2 2 2.8968 2 4V16C2 17.1032 2.8976 18 4 18H16C17.1024 18 18 17.1032 18 16V4C18 2.8968 17.1024 2 16 2ZM17.2 16C17.2 16.6616 16.6616 17.2 16 17.2H4C3.3384 17.2 2.8 16.6616 2.8 16V4C2.8 3.3384 3.3384 2.8 4 2.8H16C16.6616 2.8 17.2 3.3384 17.2 4V16Z" fill="#3656D2"/>
</svg>
