<svg width="20" height="20" viewBox="0 0 20 20" fill="none" xmlns="http://www.w3.org/2000/svg">
<g clip-path="url(#clip0_2019_12785)">
<path d="M12.0198 18.2164C11.8549 18.2575 11.6868 18.294 11.5199 18.3247C11.0836 18.4059 10.7951 18.8255 10.8758 19.2622C10.9157 19.477 11.0377 19.6559 11.2034 19.7727C11.3741 19.8929 11.5914 19.9471 11.8128 19.906C12.0115 19.8691 12.2118 19.8257 12.4084 19.7766C12.8392 19.6694 13.1017 19.233 12.9942 18.8023C12.887 18.3714 12.4509 18.1091 12.0198 18.2164Z" fill="#E79E00"/>
<path d="M17.9658 7.43917C18.0221 7.60891 18.1296 7.74747 18.2654 7.84321C18.4668 7.98505 18.7303 8.03277 18.9818 7.94962C19.4033 7.80964 19.6318 7.35504 19.4923 6.93367C19.4287 6.74158 19.3582 6.54889 19.2831 6.36127C19.1182 5.94898 18.6505 5.74824 18.238 5.91316C17.8259 6.07799 17.6251 6.54579 17.7902 6.95822C17.8533 7.11591 17.9124 7.27778 17.9658 7.43917Z" fill="#E79E00"/>
<path d="M14.633 17.0679C14.4912 17.1616 14.3448 17.2522 14.1973 17.3371C13.8126 17.559 13.6808 18.0508 13.9026 18.4354C13.9629 18.54 14.0431 18.6255 14.1355 18.6908C14.3835 18.8653 14.7203 18.8915 15.0008 18.7299C15.1761 18.6288 15.3504 18.5212 15.5194 18.4095C15.8897 18.1649 15.9916 17.666 15.7468 17.2955C15.5021 16.9249 15.0035 16.8231 14.633 17.0679Z" fill="#E79E00"/>
<path d="M19.9921 9.68457C19.9746 9.24081 19.6009 8.89541 19.157 8.91273C18.7136 8.93023 18.368 9.30414 18.3854 9.74773C18.3921 9.91733 18.3938 10.0895 18.3899 10.2589C18.3836 10.5372 18.5197 10.7853 18.7313 10.9344C18.8573 11.0231 19.0102 11.0768 19.176 11.0806C19.6198 11.0904 19.9875 10.7384 19.9974 10.2945C20.0018 10.092 20.0001 9.8869 19.9921 9.68457Z" fill="#E79E00"/>
<path d="M17.8344 14.9531C17.4785 14.6861 16.9751 14.7586 16.7086 15.1138C16.6065 15.2498 16.499 15.3842 16.389 15.5136C16.1013 15.8515 16.142 16.359 16.4799 16.6469C16.4992 16.6632 16.5186 16.6782 16.5388 16.6923C16.8748 16.9292 17.3417 16.8747 17.6133 16.556C17.7447 16.4016 17.8728 16.2412 17.9948 16.0787C18.2614 15.7235 18.1892 15.2197 17.8344 14.9531Z" fill="#E79E00"/>
<path d="M19.0165 12.0468C18.5928 11.914 18.1416 12.1498 18.0089 12.5735C17.9581 12.7354 17.9017 12.898 17.8409 13.0573C17.7074 13.4079 17.8354 13.7937 18.1286 14.0005C18.1823 14.0383 18.2416 14.0703 18.3059 14.0946C18.7208 14.2529 19.1853 14.0448 19.3434 13.6298C19.4156 13.4404 19.4826 13.2469 19.5432 13.0545C19.6758 12.6307 19.4401 12.1796 19.0165 12.0468Z" fill="#E79E00"/>
<path d="M8.51241 18.3317C7.79358 18.2026 7.10402 17.9829 6.45016 17.6763C6.44242 17.6723 6.43549 17.6677 6.42737 17.664C6.27328 17.5915 6.11946 17.5138 5.97036 17.4326C5.96985 17.432 5.9689 17.4316 5.96808 17.4313C5.69452 17.2806 5.42754 17.1139 5.16817 16.9314C1.38605 14.2671 0.476682 9.02258 3.14108 5.24051C3.72045 4.41841 4.42157 3.73256 5.20321 3.18896C5.21284 3.18225 5.22247 3.17559 5.23201 3.16884C7.9864 1.27099 11.7264 1.14309 14.6511 3.0933L14.023 4.00091C13.8483 4.25354 13.9558 4.43763 14.2615 4.41011L16.9901 4.16583C17.2962 4.13832 17.4793 3.87353 17.3969 3.57791L16.6642 0.937929C16.5822 0.641971 16.3722 0.606545 16.1974 0.859125L15.5677 1.76888C13.4214 0.328084 10.8471 -0.221314 8.2919 0.221764C8.03455 0.266304 7.78081 0.320818 7.53055 0.384275C7.52862 0.384619 7.52707 0.384834 7.52552 0.385178C7.51585 0.387542 7.50604 0.390681 7.49663 0.393303C5.29328 0.959125 3.37088 2.24421 1.99912 4.07774C1.98756 4.09145 1.97565 4.10487 1.96473 4.11979C1.91912 4.18122 1.87384 4.24408 1.82952 4.30693C1.75703 4.40994 1.68558 4.51553 1.61722 4.62112C1.60867 4.63385 1.60213 4.64679 1.59465 4.65964C0.462666 6.41377 -0.0833353 8.44171 0.0103018 10.5063C0.0105168 10.5131 0.0101299 10.5199 0.0103018 10.5269C0.0193732 10.7286 0.0353663 10.933 0.0570774 11.1343C0.0582382 11.1473 0.0611187 11.1596 0.0633113 11.1726C0.0857533 11.375 0.113913 11.5779 0.14921 11.7807C0.507937 13.8503 1.48421 15.7126 2.9471 17.1616C2.9505 17.165 2.95402 17.1687 2.95746 17.1722C2.95867 17.1736 2.96 17.1743 2.96116 17.1755C3.3542 17.5632 3.78171 17.9217 4.24203 18.2459C5.44667 19.0948 6.78807 19.6559 8.22866 19.9144C8.66576 19.9929 9.0833 19.7019 9.16172 19.2651C9.24009 18.8279 8.94938 18.41 8.51241 18.3317Z" fill="#E79E00"/>
<path d="M9.50624 3.57617C9.1467 3.57617 8.85547 3.86766 8.85547 4.22669V10.7076L14.7828 13.7717C14.8782 13.8211 14.9804 13.8444 15.0809 13.8444C15.3163 13.8444 15.5437 13.7162 15.6593 13.4925C15.8242 13.1732 15.6994 12.781 15.3801 12.6162L10.1563 9.91547V4.22669C10.1562 3.86766 9.86536 3.57617 9.50624 3.57617Z" fill="#E79E00"/>
</g>
<defs>
<clipPath id="clip0_2019_12785">
<rect width="20" height="20" fill="white"/>
</clipPath>
</defs>
</svg>
