<svg width="20" height="20" viewBox="0 0 20 20" fill="none" xmlns="http://www.w3.org/2000/svg">
<path d="M18.125 1.40625H1.875C0.927734 1.40625 0.15625 2.17773 0.15625 3.125V10.625C0.15625 15.0195 4.57153 18.5938 10 18.5938C15.4285 18.5938 19.8438 15.0195 19.8438 10.625V3.125C19.8438 2.17773 19.0723 1.40625 18.125 1.40625ZM18.9062 10.625C18.9062 14.502 14.9109 17.6562 10 17.6562C5.08911 17.6562 1.09375 14.502 1.09375 10.625V3.125C1.09375 2.69409 1.44409 2.34375 1.875 2.34375H18.125C18.5559 2.34375 18.9062 2.69409 18.9062 3.125V10.625Z" fill="#404040"/>
<path d="M16.25 6.40625H11.545L11.7188 5C11.7188 4.05273 10.9473 3.28125 10 3.28125C9.05273 3.28125 8.28125 4.05273 8.28491 5.05859L8.45322 6.40625H3.75C2.80273 6.40625 2.03125 7.17773 2.03125 8.125V10.625C2.03125 13.9856 5.60547 16.7188 10 16.7188C14.3945 16.7188 17.9688 13.9856 17.9688 10.625V8.125C17.9688 7.17773 17.1973 6.40625 16.25 6.40625ZM10 4.21875C10.4309 4.21875 10.7812 4.56909 10.7849 4.94141L10.4688 7.5C10.4688 7.75879 10.2588 7.96875 10 7.96875C9.74121 7.96875 9.53125 7.75879 9.53125 7.5C9.53125 7.48047 9.53003 7.46094 9.52759 7.44141L9.21875 5C9.21875 4.56909 9.56909 4.21875 10 4.21875ZM17.0312 10.625C17.0312 13.468 13.877 15.7812 10 15.7812C6.12305 15.7812 2.96875 13.468 2.96875 10.625V8.125C2.96875 7.69409 3.31909 7.34375 3.75 7.34375H8.57025L8.59375 7.53174C8.61084 8.29224 9.23584 8.90625 10 8.90625C10.7751 8.90625 11.4062 8.27515 11.4026 7.55859L11.4291 7.34375H16.25C16.6809 7.34375 17.0312 7.69409 17.0312 8.125V10.625Z" fill="#404040"/>
<path d="M10 9.53125C9.05273 9.53125 8.28125 10.3027 8.28125 11.25C8.28125 12.1973 9.05273 12.9688 10 12.9688C10.9473 12.9688 11.7188 12.1973 11.7188 11.25C11.7188 10.3027 10.9473 9.53125 10 9.53125ZM10 12.0312C9.56909 12.0312 9.21875 11.6809 9.21875 11.25C9.21875 10.8191 9.56909 10.4688 10 10.4688C10.4309 10.4688 10.7812 10.8191 10.7812 11.25C10.7812 11.6809 10.4309 12.0312 10 12.0312Z" fill="#404040"/>
</svg>
