<svg width="27" height="26" viewBox="0 0 27 26" fill="none" xmlns="http://www.w3.org/2000/svg">
<path d="M24.9656 13.2528C24.9656 12.3175 24.8882 11.635 24.7206 10.9272H13.8228V15.1486H20.2195C20.0906 16.1976 19.3942 17.7775 17.8465 18.8391L17.8248 18.9804L21.2705 21.5964L21.5092 21.6197C23.7017 19.6354 24.9656 16.7158 24.9656 13.2528" fill="#00AA11"/>
<path d="M13.8219 24.3749C16.9558 24.3749 19.5867 23.3637 21.5084 21.6196L17.8457 18.8389C16.8655 19.5088 15.55 19.9764 13.8219 19.9764C10.7525 19.9764 8.14738 17.9922 7.21872 15.2495L7.0826 15.2608L3.49974 17.9782L3.45288 18.1059C5.36158 21.8217 9.28221 24.3749 13.8219 24.3749Z" fill="#34A853"/>
<path d="M7.21949 15.2496C6.97445 14.5418 6.83264 13.7834 6.83264 12.9999C6.83264 12.2162 6.97445 11.4579 7.2066 10.7501L7.20011 10.5994L3.57233 7.83838L3.45364 7.89371C2.66697 9.43567 2.21558 11.1672 2.21558 12.9999C2.21558 14.8325 2.66697 16.564 3.45364 18.1059L7.21949 15.2496" fill="#3656D2"/>
<path d="M13.822 6.0233C16.0015 6.0233 17.4717 6.94594 18.31 7.71696L21.5858 4.5825C19.574 2.74987 16.9559 1.625 13.822 1.625C9.28225 1.625 5.36159 4.17804 3.45288 7.89384L7.20585 10.7503C8.1474 8.00763 10.7525 6.0233 13.822 6.0233" fill="#EB4335"/>
</svg>
