<svg width="33" height="32" viewBox="0 0 33 32" fill="none" xmlns="http://www.w3.org/2000/svg">
<g clip-path="url(#clip0_294_22834)">
<path d="M30.7891 14.6674H4.12238V3.42742C4.12238 2.66742 4.82906 2.00073 5.63569 2.00073H8.42238C9.20906 2.00073 9.84238 2.64073 9.84906 3.42073C8.54906 3.74742 7.45575 4.94742 7.45575 6.21404V8.00073C7.45575 8.36742 7.75575 8.66742 8.12244 8.66742H12.7891C13.1558 8.66742 13.4558 8.36742 13.4558 8.00073V6.21411C13.4558 4.92742 12.4358 3.74742 11.1824 3.42742C11.1824 1.90742 9.94913 0.667419 8.42244 0.667419H5.63575C4.09575 0.667419 2.78906 1.93411 2.78906 3.42742V14.6674C1.68906 14.6607 0.79575 15.5541 0.789062 16.6541C0.789062 17.2274 1.02906 17.7674 1.45575 18.1474V21.6407C1.45575 24.354 2.66244 26.6807 4.61575 28.194L3.52244 30.3674C3.35575 30.694 3.48913 31.094 3.82244 31.2607C4.14913 31.4274 4.54912 31.294 4.71575 30.9607L5.74244 28.914C7.08912 29.634 8.59575 30.0073 10.1224 29.994H23.4557C24.9824 30.0073 26.4891 29.634 27.8358 28.914L28.8624 30.9607C29.0291 31.2874 29.4291 31.4207 29.7558 31.2607C30.0824 31.1007 30.2157 30.694 30.0557 30.3674L28.9624 28.1874C30.9157 26.6807 32.1224 24.3474 32.1224 21.634V18.1407C32.5424 17.774 32.7891 17.234 32.7891 16.6674C32.7891 15.5608 31.8958 14.6674 30.7891 14.6674ZM10.5157 4.66742C11.3091 4.66742 12.1224 5.44742 12.1224 6.21411V7.33411H8.78906V6.21411C8.78906 5.47411 9.68906 4.66742 10.5157 4.66742ZM30.7891 21.6408C30.7891 25.6475 27.6357 28.6675 23.4557 28.6675H10.1224C5.94237 28.6674 2.78906 25.6474 2.78906 21.6408V18.6675H30.7891V21.6408ZM30.7891 17.3341H2.80906C2.47575 17.3341 2.17575 17.0941 2.12906 16.7674C2.06906 16.3541 2.38906 16.0007 2.78906 16.0007H30.7691C31.1024 16.0007 31.4024 16.2407 31.4491 16.5674C31.5091 16.9808 31.1891 17.3341 30.7891 17.3341Z" fill="#404040"/>
</g>
<defs>
<clipPath id="clip0_294_22834">
<rect width="32" height="32" fill="white" transform="translate(0.789062)"/>
</clipPath>
</defs>
</svg>
