<svg width="33" height="32" viewBox="0 0 33 32" fill="none" xmlns="http://www.w3.org/2000/svg">
<g clip-path="url(#clip0_294_22830)">
<path d="M31.5391 21.5H31.0391V17.5C31.0384 16.9698 30.8274 16.4615 30.4525 16.0866C30.0776 15.7116 29.5693 15.5007 29.0391 15.5V7C29.0384 6.46978 28.8274 5.96148 28.4525 5.58655C28.0776 5.21163 27.5693 5.00069 27.0391 5H6.03906C5.50884 5.00069 5.00054 5.21163 4.62562 5.58655C4.25069 5.96148 4.03976 6.46978 4.03906 7V15.5C3.50884 15.5007 3.00054 15.7116 2.62562 16.0866C2.25069 16.4615 2.03976 16.9698 2.03906 17.5V21.5H1.53906C1.40645 21.5 1.27928 21.5527 1.18551 21.6464C1.09174 21.7402 1.03906 21.8674 1.03906 22V24C1.03906 24.1326 1.09174 24.2598 1.18551 24.3536C1.27928 24.4473 1.40645 24.5 1.53906 24.5H2.03906V26.5C2.03906 26.6326 2.09174 26.7598 2.18551 26.8536C2.27928 26.9473 2.40645 27 2.53906 27H4.03906C4.15462 27.0001 4.26662 26.96 4.35598 26.8867C4.44533 26.8135 4.5065 26.7115 4.52906 26.5981L4.94906 24.5H28.1291L28.5491 26.5981C28.5716 26.7115 28.6328 26.8135 28.7221 26.8867C28.8115 26.96 28.9235 27.0001 29.0391 27H30.5391C30.6717 27 30.7988 26.9473 30.8926 26.8536C30.9864 26.7598 31.0391 26.6326 31.0391 26.5V24.5H31.5391C31.6717 24.5 31.7988 24.4473 31.8926 24.3536C31.9864 24.2598 32.0391 24.1326 32.0391 24V22C32.0391 21.8674 31.9864 21.7402 31.8926 21.6464C31.7988 21.5527 31.6717 21.5 31.5391 21.5ZM5.03906 7C5.03941 6.73489 5.14488 6.48074 5.33234 6.29328C5.5198 6.10582 5.77395 6.00035 6.03906 6H27.0391C27.3042 6.00035 27.5583 6.10582 27.7458 6.29328C27.9332 6.48074 28.0387 6.73489 28.0391 7V15.5H27.0391V13.5C27.0384 12.9698 26.8274 12.4615 26.4525 12.0866C26.0776 11.7116 25.5693 11.5007 25.0391 11.5H19.0391C18.5088 11.5007 18.0005 11.7116 17.6256 12.0866C17.2507 12.4615 17.0398 12.9698 17.0391 13.5V15.5H16.0391V13.5C16.0384 12.9698 15.8274 12.4615 15.4525 12.0866C15.0776 11.7116 14.5693 11.5007 14.0391 11.5H8.03906C7.50884 11.5007 7.00054 11.7116 6.62562 12.0866C6.25069 12.4615 6.03976 12.9698 6.03906 13.5V15.5H5.03906V7ZM26.0391 13.5V15.5H18.0391V13.5C18.0394 13.2349 18.1449 12.9807 18.3323 12.7933C18.5198 12.6058 18.774 12.5003 19.0391 12.5H25.0391C25.3042 12.5003 25.5583 12.6058 25.7458 12.7933C25.9332 12.9807 26.0387 13.2349 26.0391 13.5ZM15.0391 13.5V15.5H7.03906V13.5C7.03941 13.2349 7.14488 12.9807 7.33234 12.7933C7.5198 12.6058 7.77395 12.5003 8.03906 12.5H14.0391C14.3042 12.5003 14.5583 12.6058 14.7458 12.7933C14.9332 12.9807 15.0387 13.2349 15.0391 13.5ZM3.03906 17.5C3.03941 17.2349 3.14488 16.9807 3.33234 16.7933C3.5198 16.6058 3.77395 16.5003 4.03906 16.5H29.0391C29.3042 16.5003 29.5583 16.6058 29.7458 16.7933C29.9332 16.9807 30.0387 17.2349 30.0391 17.5V21.5H3.03906V17.5ZM3.62906 26H3.03906V24.5H3.92906L3.62906 26ZM30.0391 26H29.4491L29.1491 24.5H30.0391V26ZM31.0391 23.5H2.03906V22.5H31.0391V23.5Z" fill="#404040"/>
</g>
<defs>
<clipPath id="clip0_294_22830">
<rect width="32" height="32" fill="white" transform="translate(0.539062)"/>
</clipPath>
</defs>
</svg>
