<svg width="33" height="32" viewBox="0 0 33 32" fill="none" xmlns="http://www.w3.org/2000/svg">
<path d="M30.2501 9.47501L16.2911 1.0217C16.2137 0.974455 16.1247 0.949463 16.034 0.949463C15.9433 0.949463 15.8543 0.974455 15.7769 1.0217L1.82689 9.47501C1.75531 9.52044 1.69687 9.58383 1.65739 9.65887C1.61792 9.7339 1.59878 9.81797 1.60189 9.9027V30.5506C1.60189 30.8268 1.79708 31.0625 2.0732 31.0625H5.04989C5.18262 31.0594 5.3087 31.0037 5.40046 30.9078C5.49223 30.8118 5.54219 30.6834 5.53939 30.5506V16.375H26.5394V30.5506C26.5366 30.6834 26.5865 30.8118 26.6783 30.9078C26.7701 31.0037 26.8962 31.0594 27.0289 31.0625H30.0056C30.2817 31.0625 30.4769 30.8268 30.4769 30.5506V9.90282C30.4797 9.81793 30.4602 9.73378 30.4205 9.65873C30.3807 9.58369 30.322 9.52035 30.2501 9.47501ZM5.53939 15.375V13.375H26.5394V15.375H5.53939ZM29.4769 30.0625H27.5394V12.8796C27.5372 12.7454 27.4825 12.6174 27.3871 12.5231C27.2917 12.4288 27.1631 12.3756 27.0289 12.375H5.04989C4.91571 12.3756 4.78712 12.4288 4.69168 12.5231C4.59625 12.6174 4.54158 12.7454 4.53939 12.8796V30.0625H2.60189V10.1847L16.0394 2.03388L29.4769 10.1847V30.0625Z" fill="#404040"/>
<path d="M23.806 21.9932L22.4845 18.4171C22.3652 18.0953 22.1508 17.8173 21.8699 17.62C21.589 17.4227 21.2547 17.3155 20.9115 17.3125H11.4024C11.0591 17.3155 10.7249 17.4228 10.444 17.62C10.163 17.8173 9.94866 18.0953 9.82928 18.4171L8.52628 21.9386L8.0129 22.4229C7.7652 22.6362 7.56665 22.9007 7.43092 23.1981C7.29519 23.4955 7.2255 23.8188 7.22665 24.1457V30.5506C7.22412 30.6835 7.27433 30.812 7.3663 30.9079C7.45826 31.0038 7.58448 31.0594 7.71734 31.0625H11.0539C11.1194 31.0609 11.1839 31.0463 11.2438 31.0197C11.3037 30.993 11.3577 30.9548 11.4028 30.9073C11.4479 30.8597 11.4831 30.8038 11.5065 30.7425C11.5299 30.6813 11.541 30.6161 11.5392 30.5506V28.75H20.5392V30.5506C20.5373 30.6161 20.5484 30.6813 20.5718 30.7425C20.5952 30.8038 20.6304 30.8597 20.6755 30.9073C20.7206 30.9548 20.7746 30.993 20.8345 31.0197C20.8944 31.0463 20.9589 31.0609 21.0244 31.0625H24.361C24.4938 31.0594 24.62 31.0038 24.712 30.9079C24.804 30.812 24.8542 30.6835 24.8517 30.5506V24.0108C24.852 23.7054 24.7907 23.4031 24.6715 23.1219C24.5523 22.8407 24.3776 22.5865 24.1579 22.3744L23.806 21.9932ZM10.767 18.775C10.8144 18.6432 10.9004 18.5286 11.0137 18.4462C11.1269 18.3637 11.2624 18.3171 11.4024 18.3125H20.9115C21.0515 18.3171 21.1869 18.3637 21.3002 18.4462C21.4135 18.5286 21.4994 18.6432 21.5469 18.775L22.6415 21.75H9.67228L10.767 18.775ZM10.5392 30.0625H8.22665V28.75H10.5392V30.0625ZM21.5392 30.0625V28.75H23.8517V30.0625H21.5392ZM23.8517 27.75H8.22665V24.1457C8.22565 23.9622 8.26472 23.7807 8.34114 23.6139C8.41756 23.4471 8.52948 23.299 8.66909 23.18C8.67484 23.1751 8.67815 23.1807 8.68372 23.1755L9.1504 22.75H23.1248L23.4423 23.0788C23.4493 23.0863 23.452 23.0883 23.4595 23.0954C23.5838 23.2131 23.6828 23.3551 23.7502 23.5125C23.8177 23.67 23.8522 23.8395 23.8517 24.0108V27.75Z" fill="#404040"/>
<path d="M10.6946 23.9375H10.4063C10.0167 23.9375 9.64313 24.0922 9.36769 24.3677C9.09224 24.6431 8.9375 25.0167 8.9375 25.4062C8.9375 25.7958 9.09224 26.1694 9.36769 26.4448C9.64313 26.7203 10.0167 26.875 10.4063 26.875H10.6946C11.0842 26.875 11.4577 26.7203 11.7332 26.4448C12.0086 26.1694 12.1634 25.7958 12.1634 25.4062C12.1634 25.0167 12.0086 24.6431 11.7332 24.3677C11.4577 24.0922 11.0842 23.9375 10.6946 23.9375ZM10.6946 25.875H10.4063C10.2819 25.875 10.1627 25.8256 10.0748 25.7377C9.98689 25.6498 9.9375 25.5306 9.9375 25.4062C9.9375 25.2819 9.98689 25.1627 10.0748 25.0748C10.1627 24.9869 10.2819 24.9375 10.4063 24.9375H10.6946C10.8189 24.9375 10.9382 24.9869 11.0261 25.0748C11.114 25.1627 11.1634 25.2819 11.1634 25.4062C11.1634 25.5306 11.114 25.6498 11.0261 25.7377C10.9382 25.8256 10.8189 25.875 10.6946 25.875Z" fill="#404040"/>
<path d="M21.6722 23.9375H21.3838C20.9943 23.9375 20.6207 24.0922 20.3452 24.3677C20.0698 24.6431 19.915 25.0167 19.915 25.4062C19.915 25.7958 20.0698 26.1694 20.3452 26.4448C20.6207 26.7203 20.9943 26.875 21.3838 26.875H21.6722C22.0617 26.875 22.4353 26.7203 22.7107 26.4448C22.9862 26.1694 23.1409 25.7958 23.1409 25.4062C23.1409 25.0167 22.9862 24.6431 22.7107 24.3677C22.4353 24.0922 22.0617 23.9375 21.6722 23.9375ZM21.6722 25.875H21.3838C21.2595 25.875 21.1402 25.8256 21.0523 25.7377C20.9644 25.6498 20.915 25.5306 20.915 25.4062C20.915 25.2819 20.9644 25.1627 21.0523 25.0748C21.1402 24.9869 21.2595 24.9375 21.3838 24.9375H21.6722C21.7965 24.9375 21.9157 24.9869 22.0036 25.0748C22.0915 25.1627 22.1409 25.2819 22.1409 25.4062C22.1409 25.5306 22.0915 25.6498 22.0036 25.7377C21.9157 25.8256 21.7965 25.875 21.6722 25.875Z" fill="#404040"/>
<path d="M19.0391 24.5C19.0391 24.3674 18.9864 24.2402 18.8926 24.1464C18.7988 24.0527 18.6717 24 18.5391 24H13.4766C13.344 24 13.2168 24.0527 13.123 24.1464C13.0292 24.2402 12.9766 24.3674 12.9766 24.5V26.375C12.9766 26.5076 13.0292 26.6348 13.123 26.7286C13.2168 26.8223 13.344 26.875 13.4766 26.875H18.5391C18.6717 26.875 18.7988 26.8223 18.8926 26.7286C18.9864 26.6348 19.0391 26.5076 19.0391 26.375V24.5ZM18.1016 25.875H13.9766V25H18.1016V25.875Z" fill="#404040"/>
</svg>
