<svg width="32" height="32" viewBox="0 0 32 32" fill="none" xmlns="http://www.w3.org/2000/svg">
<path d="M13.7922 18.7469C13.5426 18.4973 13.1369 18.4973 12.8873 18.7469L8.8591 22.7751V19.2C8.8591 18.8467 8.57238 18.56 8.2191 18.56C7.86582 18.56 7.5791 18.8467 7.5791 19.2V24.32C7.5791 24.4032 7.59574 24.4864 7.62902 24.5645C7.69302 24.7207 7.81846 24.8461 7.9759 24.9114C8.0527 24.9421 8.1359 24.96 8.2191 24.96H13.3391C13.6924 24.96 13.9791 24.6733 13.9791 24.32C13.9791 23.9667 13.6924 23.68 13.3391 23.68H9.76406L13.7909 19.6531C14.0418 19.4023 14.0418 18.9978 13.7922 18.7469Z" fill="#404040"/>
<path d="M25.1041 7.08868C25.026 7.05796 24.9428 7.04004 24.8596 7.04004H19.7396C19.3863 7.04004 19.0996 7.32676 19.0996 7.68004C19.0996 8.03332 19.3863 8.32004 19.7396 8.32004H23.3146L19.2878 12.3469C19.0382 12.5965 19.0382 13.0023 19.2878 13.2519C19.4119 13.3773 19.5758 13.44 19.7396 13.44C19.9034 13.44 20.0673 13.3773 20.1927 13.2532L24.2196 9.225V12.8C24.2196 13.1533 24.5063 13.44 24.8596 13.44C25.2129 13.44 25.4996 13.1533 25.4996 12.8V7.68004C25.4996 7.59684 25.483 7.51364 25.4497 7.43556C25.3857 7.2794 25.2602 7.15396 25.1041 7.08868Z" fill="#404040"/>
<path d="M26.1393 3.20001H6.93926C5.17542 3.20001 3.73926 4.63489 3.73926 6.40001V25.6C3.73926 27.3651 5.17542 28.8 6.93926 28.8H26.1393C27.9031 28.8 29.3393 27.3651 29.3393 25.6V6.40001C29.3393 4.63489 27.9031 3.20001 26.1393 3.20001ZM28.0593 25.6C28.0593 26.6586 27.1978 27.52 26.1393 27.52H6.93926C5.8807 27.52 5.01926 26.6586 5.01926 25.6V6.40001C5.01926 5.34145 5.8807 4.48001 6.93926 4.48001H26.1393C27.1978 4.48001 28.0593 5.34145 28.0593 6.40001V25.6Z" fill="#404040"/>
</svg>
