<svg width="33" height="32" viewBox="0 0 33 32" fill="none" xmlns="http://www.w3.org/2000/svg">
<g clip-path="url(#clip0_294_22848)">
<path d="M29.2891 2.25H3.28906C1.77344 2.25 0.539062 3.48438 0.539062 5V17C0.539062 24.0312 7.60352 29.75 16.2891 29.75C24.9746 29.75 32.0391 24.0312 32.0391 17V5C32.0391 3.48438 30.8047 2.25 29.2891 2.25ZM30.5391 17C30.5391 23.2031 24.1465 28.25 16.2891 28.25C8.43164 28.25 2.03906 23.2031 2.03906 17V5C2.03906 4.31055 2.59961 3.75 3.28906 3.75H29.2891C29.9785 3.75 30.5391 4.31055 30.5391 5V17Z" fill="#404040"/>
<path d="M26.2891 10.25H18.761L19.0391 8C19.0391 6.48438 17.8047 5.25 16.2891 5.25C14.7734 5.25 13.5391 6.48438 13.5449 8.09375L13.8142 10.25H6.28906C4.77344 10.25 3.53906 11.4844 3.53906 13V17C3.53906 22.377 9.25781 26.75 16.2891 26.75C23.3203 26.75 29.0391 22.377 29.0391 17V13C29.0391 11.4844 27.8047 10.25 26.2891 10.25ZM16.2891 6.75C16.9785 6.75 17.5391 7.31055 17.5449 7.90625L17.0391 12C17.0391 12.4141 16.7031 12.75 16.2891 12.75C15.875 12.75 15.5391 12.4141 15.5391 12C15.5391 11.9688 15.5371 11.9375 15.5332 11.9062L15.0391 8C15.0391 7.31055 15.5996 6.75 16.2891 6.75ZM27.5391 17C27.5391 21.5488 22.4922 25.25 16.2891 25.25C10.0859 25.25 5.03906 21.5488 5.03906 17V13C5.03906 12.3105 5.59961 11.75 6.28906 11.75H14.0015L14.0391 12.0508C14.0664 13.2676 15.0664 14.25 16.2891 14.25C17.5293 14.25 18.5391 13.2402 18.5332 12.0938L18.5757 11.75H26.2891C26.9785 11.75 27.5391 12.3105 27.5391 13V17Z" fill="#404040"/>
<path d="M16.2891 15.25C14.7734 15.25 13.5391 16.4844 13.5391 18C13.5391 19.5156 14.7734 20.75 16.2891 20.75C17.8047 20.75 19.0391 19.5156 19.0391 18C19.0391 16.4844 17.8047 15.25 16.2891 15.25ZM16.2891 19.25C15.5996 19.25 15.0391 18.6895 15.0391 18C15.0391 17.3105 15.5996 16.75 16.2891 16.75C16.9785 16.75 17.5391 17.3105 17.5391 18C17.5391 18.6895 16.9785 19.25 16.2891 19.25Z" fill="#404040"/>
</g>
<defs>
<clipPath id="clip0_294_22848">
<rect width="32" height="32" fill="white" transform="translate(0.289062)"/>
</clipPath>
</defs>
</svg>
