<svg width="20" height="20" viewBox="0 0 20 20" fill="none" xmlns="http://www.w3.org/2000/svg">
<g clip-path="url(#clip0_2001_2012)">
<path d="M18.75 9.16718H2.08332V2.14218C2.08332 1.66718 2.525 1.2505 3.02914 1.2505H4.77082C5.2625 1.2505 5.65832 1.6505 5.6625 2.138C4.85 2.34218 4.16668 3.09218 4.16668 3.88382V5.0005C4.16668 5.22967 4.35418 5.41718 4.58336 5.41718H7.5C7.72918 5.41718 7.91668 5.22967 7.91668 5.0005V3.88386C7.91668 3.07968 7.27918 2.34218 6.49586 2.14218C6.49586 1.19218 5.72504 0.417175 4.77086 0.417175H3.02918C2.06668 0.417175 1.25 1.20885 1.25 2.14218V9.16718C0.5625 9.163 0.00417969 9.72136 0 10.4089C0 10.7672 0.15 11.1047 0.41668 11.3422V13.5255C0.41668 15.2213 1.17086 16.6755 2.39168 17.6213L1.70836 18.9796C1.60418 19.1838 1.68754 19.4338 1.89586 19.538C2.10004 19.6421 2.35004 19.5588 2.45418 19.3505L3.09586 18.0713C3.93754 18.5213 4.87918 18.7546 5.83336 18.7463H14.1667C15.1209 18.7546 16.0625 18.5213 16.9042 18.0713L17.5459 19.3505C17.65 19.5546 17.9 19.638 18.1042 19.538C18.3084 19.438 18.3917 19.1838 18.2917 18.9796L17.6084 17.6171C18.8292 16.6755 19.5834 15.2171 19.5834 13.5213V11.338C19.8459 11.1088 20 10.7713 20 10.4172C20 9.72553 19.4417 9.16718 18.75 9.16718ZM6.07918 2.91718C6.575 2.91718 7.08336 3.40468 7.08336 3.88386V4.58386H5V3.88386C5 3.42136 5.5625 2.91718 6.07918 2.91718ZM18.75 13.5255C18.75 16.0297 16.7792 17.9172 14.1667 17.9172H5.83332C3.22082 17.9172 1.25 16.0297 1.25 13.5255V11.6672H18.75V13.5255ZM18.75 10.8339H1.2625C1.05418 10.8339 0.86668 10.6839 0.8375 10.4797C0.8 10.2214 1 10.0005 1.25 10.0005H18.7375C18.9458 10.0005 19.1333 10.1505 19.1625 10.3547C19.2 10.613 19 10.8339 18.75 10.8339Z" fill="#404040"/>
</g>
<defs>
<clipPath id="clip0_2001_2012">
<rect width="20" height="20" fill="white"/>
</clipPath>
</defs>
</svg>
