<svg width="20" height="20" viewBox="0 0 20 20" fill="none" xmlns="http://www.w3.org/2000/svg">
<path d="M0.625 5.21923H10.8013C11.082 6.35337 12.1079 7.19685 13.3276 7.19685C14.5472 7.19685 15.5732 6.35337 15.8539 5.21923H19.375C19.7202 5.21923 20 4.93939 20 4.59423C20 4.24908 19.7202 3.96923 19.375 3.96923H15.8538C15.5732 2.83509 14.5472 1.99158 13.3275 1.99158C12.1079 1.99158 11.0819 2.83509 10.8012 3.96923H0.625C0.279844 3.96923 0 4.24908 0 4.59423C0 4.93939 0.279844 5.21923 0.625 5.21923ZM13.3276 3.24158C14.0734 3.24158 14.6802 3.84837 14.6802 4.59419C14.6802 5.34005 14.0734 5.94685 13.3276 5.94685C12.5817 5.94685 11.9749 5.34005 11.9749 4.59419C11.9749 3.84837 12.5817 3.24158 13.3276 3.24158ZM0.625 10.625H4.14617C4.42688 11.7592 5.45277 12.6026 6.67246 12.6026C7.89215 12.6026 8.91805 11.7592 9.19875 10.625H19.375C19.7202 10.625 20 10.3452 20 10C20 9.65486 19.7202 9.37501 19.375 9.37501H9.19871C8.91801 8.24087 7.89211 7.39736 6.67242 7.39736C5.45273 7.39736 4.42684 8.24087 4.14613 9.37501H0.625C0.279844 9.37501 0 9.65486 0 10C0 10.3452 0.279805 10.625 0.625 10.625ZM6.67242 8.64736C7.41828 8.64736 8.02508 9.25416 8.02508 10C8.02508 10.7458 7.41828 11.3526 6.67242 11.3526C5.92656 11.3526 5.31977 10.7458 5.31977 10C5.31977 9.25416 5.92656 8.64736 6.67242 8.64736ZM19.375 14.7808H15.8538C15.5731 13.6467 14.5472 12.8031 13.3275 12.8031C12.1079 12.8031 11.082 13.6467 10.8012 14.7808H0.625C0.279844 14.7808 0 15.0606 0 15.4058C0 15.751 0.279844 16.0308 0.625 16.0308H10.8013C11.082 17.1649 12.1079 18.0085 13.3276 18.0085C14.5473 18.0085 15.5732 17.1649 15.8539 16.0308H19.375C19.7202 16.0308 20 15.751 20 15.4058C20 15.0606 19.7202 14.7808 19.375 14.7808ZM13.3276 16.7585C12.5817 16.7585 11.9749 16.1517 11.9749 15.4058C11.9749 14.6599 12.5817 14.0531 13.3276 14.0531C14.0734 14.0531 14.6802 14.6599 14.6802 15.4058C14.6802 16.1517 14.0734 16.7585 13.3276 16.7585Z" fill="white"/>
</svg>
