<svg width="20" height="20" viewBox="0 0 20 20" fill="none" xmlns="http://www.w3.org/2000/svg">
<path d="M3.95837 6.66666H6.04171" stroke="#374151" stroke-width="1.5" stroke-linecap="round" stroke-linejoin="round"/>
<path d="M10.625 6.66666H16.0417" stroke="#374151" stroke-width="1.5" stroke-linecap="round" stroke-linejoin="round"/>
<path d="M3.95837 13.3333H10.2084" stroke="#141414" stroke-width="1.5" stroke-linecap="round" stroke-linejoin="round"/>
<path d="M14.7916 13.3333H16.0416" stroke="#141414" stroke-width="1.5" stroke-linecap="round" stroke-linejoin="round"/>
<path d="M10.2084 6.66666C10.2084 7.70219 9.36891 8.54166 8.33337 8.54166C7.29784 8.54166 6.45837 7.70219 6.45837 6.66666C6.45837 5.63112 7.29784 4.79166 8.33337 4.79166C9.36891 4.79166 10.2084 5.63112 10.2084 6.66666Z" stroke="#141414" stroke-width="1.5" stroke-linecap="round" stroke-linejoin="round"/>
<path d="M14.375 13.3333C14.375 14.3689 13.5355 15.2083 12.5 15.2083C11.4645 15.2083 10.625 14.3689 10.625 13.3333C10.625 12.2978 11.4645 11.4583 12.5 11.4583C13.5355 11.4583 14.375 12.2978 14.375 13.3333Z" stroke="#141414" stroke-width="1.5" stroke-linecap="round" stroke-linejoin="round"/>
</svg>
