<svg width="20" height="20" viewBox="0 0 20 20" fill="none" xmlns="http://www.w3.org/2000/svg">
<path d="M16.0417 6.66666L18.1667 3.83332C18.2594 3.70946 18.3157 3.56227 18.3295 3.40822C18.3433 3.25416 18.314 3.09931 18.2448 2.96097C18.1756 2.82263 18.0693 2.70625 17.9378 2.62484C17.8063 2.54343 17.6548 2.50021 17.5001 2.49999H7.50008C7.50008 2.27898 7.41228 2.06701 7.256 1.91073C7.09972 1.75445 6.88776 1.66666 6.66675 1.66666C6.44573 1.66666 6.23377 1.75445 6.07749 1.91073C5.92121 2.06701 5.83341 2.27898 5.83341 2.49999V16.6667H5.00008C4.77907 16.6667 4.56711 16.7545 4.41083 16.9107C4.25455 17.067 4.16675 17.279 4.16675 17.5C4.16675 17.721 4.25455 17.933 4.41083 18.0892C4.56711 18.2455 4.77907 18.3333 5.00008 18.3333H8.33342C8.55443 18.3333 8.76639 18.2455 8.92267 18.0892C9.07895 17.933 9.16675 17.721 9.16675 17.5C9.16675 17.279 9.07895 17.067 8.92267 16.9107C8.76639 16.7545 8.55443 16.6667 8.33342 16.6667H7.50008V10.8333H17.5001C17.6548 10.8331 17.8063 10.7899 17.9378 10.7085C18.0693 10.6271 18.1756 10.5107 18.2448 10.3723C18.314 10.234 18.3433 10.0792 18.3295 9.9251C18.3157 9.77104 18.2594 9.62386 18.1667 9.49999L16.0417 6.66666Z" fill="white"/>
</svg>
