<svg width="20" height="21" viewBox="0 0 20 21" fill="none" xmlns="http://www.w3.org/2000/svg">
<path d="M9.16663 8.00002H10.8333V6.33335H9.16663M9.99996 17.1667C6.32496 17.1667 3.33329 14.175 3.33329 10.5C3.33329 6.82502 6.32496 3.83335 9.99996 3.83335C13.675 3.83335 16.6666 6.82502 16.6666 10.5C16.6666 14.175 13.675 17.1667 9.99996 17.1667ZM9.99996 2.16669C8.90561 2.16669 7.82198 2.38224 6.81093 2.80102C5.79988 3.21981 4.88122 3.83364 4.1074 4.60746C2.5446 6.17027 1.66663 8.28988 1.66663 10.5C1.66663 12.7102 2.5446 14.8298 4.1074 16.3926C4.88122 17.1664 5.79988 17.7802 6.81093 18.199C7.82198 18.6178 8.90561 18.8334 9.99996 18.8334C12.2101 18.8334 14.3297 17.9554 15.8925 16.3926C17.4553 14.8298 18.3333 12.7102 18.3333 10.5C18.3333 9.40567 18.1177 8.32204 17.699 7.31099C17.2802 6.29994 16.6663 5.38129 15.8925 4.60746C15.1187 3.83364 14.2 3.21981 13.189 2.80102C12.1779 2.38224 11.0943 2.16669 9.99996 2.16669ZM9.16663 14.6667H10.8333V9.66669H9.16663V14.6667Z" fill="#3656D2"/>
</svg>
