<svg width="20" height="20" viewBox="0 0 20 20" fill="none" xmlns="http://www.w3.org/2000/svg">
<path d="M5.725 9.2875C5.62239 9.16159 5.57283 9.00068 5.58682 8.83886C5.60081 8.67704 5.67724 8.52702 5.79993 8.42058C5.92262 8.31414 6.08192 8.25964 6.2441 8.26863C6.40628 8.27763 6.55858 8.3494 6.66875 8.46875L9.375 11.5625V3.125C9.375 2.95924 9.44085 2.80027 9.55806 2.68306C9.67527 2.56585 9.83424 2.5 10 2.5C10.1658 2.5 10.3247 2.56585 10.4419 2.68306C10.5592 2.80027 10.625 2.95924 10.625 3.125V11.5625L13.3313 8.46875C13.4414 8.3494 13.5937 8.27763 13.7559 8.26863C13.9181 8.25964 14.0774 8.31414 14.2001 8.42058C14.3228 8.52702 14.3992 8.67704 14.4132 8.83886C14.4272 9.00068 14.3776 9.16159 14.275 9.2875L10.4688 13.6625C10.4101 13.729 10.338 13.7823 10.2571 13.8188C10.1763 13.8552 10.0887 13.8741 10 13.8741C9.91133 13.8741 9.82367 13.8552 9.74285 13.8188C9.66203 13.7823 9.5899 13.729 9.53125 13.6625L5.725 9.2875ZM16.875 13.7812C16.7092 13.7812 16.5503 13.8471 16.4331 13.9643C16.3158 14.0815 16.25 14.2405 16.25 14.4062V15.15C16.25 15.3875 15.9375 15.6562 15.4875 15.6562H4.5125C4.0625 15.6562 3.75 15.3875 3.75 15.15V14.4062C3.75 14.2405 3.68415 14.0815 3.56694 13.9643C3.44973 13.8471 3.29076 13.7812 3.125 13.7812C2.95924 13.7812 2.80027 13.8471 2.68306 13.9643C2.56585 14.0815 2.5 14.2405 2.5 14.4062V15.15C2.51504 15.3981 2.57925 15.6407 2.68891 15.8638C2.79856 16.0868 2.95147 16.2858 3.13873 16.4493C3.326 16.6127 3.54389 16.7372 3.77973 16.8157C4.01557 16.8942 4.26466 16.9249 4.5125 16.9062H15.4875C15.7353 16.9249 15.9844 16.8942 16.2203 16.8157C16.4561 16.7372 16.674 16.6127 16.8613 16.4493C17.0485 16.2858 17.2014 16.0868 17.3111 15.8638C17.4207 15.6407 17.485 15.3981 17.5 15.15V14.4062C17.5 14.2405 17.4342 14.0815 17.3169 13.9643C17.1997 13.8471 17.0408 13.7812 16.875 13.7812Z" fill="#3656D2"/>
</svg>
