<svg width="40" height="28" viewBox="0 0 40 28" fill="none" xmlns="http://www.w3.org/2000/svg">
<g clip-path="url(#clip0_106_19121)">
<path d="M5.83336 -0.166626H34.1667C37.3884 -0.166626 40.0001 2.44501 40.0001 5.66673V22.3334C40.0001 25.555 37.3884 28.1667 34.1667 28.1667H5.83336C2.61164 28.1667 0 25.555 0 22.3334V5.66665C0 2.44501 2.61164 -0.166626 5.83336 -0.166626Z" fill="url(#paint0_linear_106_19121)"/>
<path d="M14.1666 18.1664C13.9043 18.1664 13.6573 18.0429 13.5 17.833L9.99997 13.1664V17.333C9.99997 17.7932 9.62685 18.1664 9.16661 18.1664C8.70638 18.1664 8.33325 17.7932 8.33325 17.333V10.6664C8.33325 10.2061 8.70638 9.83301 9.16661 9.83301C9.42888 9.83301 9.67591 9.95652 9.83325 10.1664L13.3333 14.833V10.6664C13.3333 10.2061 13.7064 9.83301 14.1666 9.83301C14.6268 9.83301 15 10.2061 15 10.6664V17.333C14.9997 17.6915 14.7701 18.0097 14.43 18.123C14.3451 18.1518 14.2562 18.1664 14.1666 18.1664Z" fill="#FAFAFA"/>
<path d="M20.8333 18.1666H17.5C17.0398 18.1666 16.6666 17.7935 16.6666 17.3333V10.6666C16.6666 10.2064 17.0398 9.83328 17.5 9.83328H20.8333C21.2936 9.83328 21.6667 10.2064 21.6667 10.6666C21.6667 11.1269 21.2936 11.5 20.8333 11.5H18.3333V16.5H20.8333C21.2936 16.5 21.6667 16.8731 21.6667 17.3334C21.6666 17.7936 21.2936 18.1666 20.8333 18.1666Z" fill="#FAFAFA"/>
<path d="M20.8333 14.8333H17.5C17.0398 14.8333 16.6666 14.4602 16.6666 14C16.6666 13.5398 17.0398 13.1666 17.5 13.1666H20.8333C21.2936 13.1666 21.6667 13.5398 21.6667 14C21.6666 14.4602 21.2936 14.8333 20.8333 14.8333Z" fill="#FAFAFA"/>
<path d="M29.1666 18.1666C28.8075 18.1671 28.4884 17.9374 28.375 17.5966L27.5 14.9683L26.625 17.5967C26.5247 17.9608 26.1776 18.2004 25.8016 18.1651C25.4315 18.151 25.1151 17.8944 25.025 17.5351L23.3583 10.8684C23.2469 10.4216 23.519 9.96897 23.9658 9.85757C24.4127 9.74616 24.8653 10.0182 24.9767 10.4651L25.9483 14.3551L26.71 12.0701C26.908 11.6333 27.4226 11.4398 27.8594 11.6378C28.0511 11.7248 28.2047 11.8783 28.2917 12.0701L29.0533 14.3551L30.025 10.4651C30.1364 10.0182 30.5889 9.74616 31.0358 9.85757C31.4827 9.96897 31.7547 10.4215 31.6433 10.8684L29.9767 17.5351C29.8866 17.8944 29.5701 18.151 29.2 18.1651L29.1666 18.1666Z" fill="#FAFAFA"/>
</g>
<defs>
<linearGradient id="paint0_linear_106_19121" x1="36.5" y1="22.5" x2="4" y2="6" gradientUnits="userSpaceOnUse">
<stop stop-color="#6155F5"/>
<stop offset="1" stop-color="#3656D2"/>
</linearGradient>
<clipPath id="clip0_106_19121">
<rect width="40" height="28" fill="white"/>
</clipPath>
</defs>
</svg>
