<svg width="20" height="20" viewBox="0 0 20 20" fill="none" xmlns="http://www.w3.org/2000/svg">
<path fill-rule="evenodd" clip-rule="evenodd" d="M9.1665 9.16666V2.49999C9.1665 2.03975 9.5396 1.66666 9.99984 1.66666C10.4601 1.66666 10.8332 2.03975 10.8332 2.49999V9.16666H17.4998C17.9601 9.16666 18.3332 9.53975 18.3332 9.99999C18.3332 10.4602 17.9601 10.8333 17.4998 10.8333H10.8332V17.5C10.8332 17.9602 10.4601 18.3333 9.99984 18.3333C9.5396 18.3333 9.1665 17.9602 9.1665 17.5V10.8333H2.49984C2.0396 10.8333 1.6665 10.4602 1.6665 9.99999C1.6665 9.53975 2.0396 9.16666 2.49984 9.16666H9.1665Z" fill="white"/>
</svg>
