<svg width="48" height="48" viewBox="0 0 48 48" fill="none" xmlns="http://www.w3.org/2000/svg">
<g clip-path="url(#clip0_158_54678)">
<path d="M45 22.0012H4.99997V5.14116C4.99997 4.00116 6.06 3.00113 7.26994 3.00113H11.45C12.63 3.00113 13.58 3.96113 13.59 5.13113C11.64 5.62116 10 7.42116 10 9.3211V12.0011C10 12.5512 10.45 13.0012 11.0001 13.0012H18C18.55 13.0012 19 12.5512 19 12.0011V9.32119C19 7.39116 17.47 5.62116 15.5901 5.14116C15.5901 2.86116 13.7401 1.00116 11.4501 1.00116H7.27003C4.96003 1.00116 3 2.90119 3 5.14116V22.0012C1.35 21.9911 0.0100313 23.3312 0 24.9812C0 25.8412 0.36 26.6512 1.00003 27.2212V32.4611C1.00003 36.5311 2.81006 40.0211 5.74003 42.2911L4.10006 45.5511C3.85003 46.0411 4.05009 46.6411 4.55006 46.891C5.04009 47.1411 5.64009 46.941 5.89003 46.441L7.43006 43.371C9.45009 44.451 11.71 45.011 14.0001 44.991H34C36.2901 45.011 38.55 44.451 40.57 43.371L42.1101 46.441C42.3601 46.9311 42.9601 47.131 43.45 46.891C43.9401 46.651 44.14 46.041 43.9 45.5511L42.2601 42.2811C45.19 40.021 47.0001 36.5211 47.0001 32.4511V27.2111C47.6301 26.6611 48.0001 25.8511 48.0001 25.0012C48 23.3412 46.66 22.0012 45 22.0012ZM14.59 7.00116C15.78 7.00116 17.0001 8.17116 17.0001 9.32119V11.0012H12V9.32119C12 8.21119 13.35 7.00116 14.59 7.00116ZM45 32.4612C45 38.4713 40.27 43.0013 34 43.0013H14C7.72997 43.0012 3 38.4712 3 32.4612V28.0013H45V32.4612ZM45 26.0012H3.03C2.53003 26.0012 2.08003 25.6412 2.01 25.1512C1.92 24.5312 2.4 24.0011 3 24.0011H44.97C45.47 24.0011 45.92 24.3611 45.99 24.8512C46.08 25.4712 45.6 26.0012 45 26.0012Z" fill="#404040"/>
</g>
<defs>
<clipPath id="clip0_158_54678">
<rect width="48" height="48" fill="white"/>
</clipPath>
</defs>
</svg>
