<svg width="48" height="48" viewBox="0 0 48 48" fill="none" xmlns="http://www.w3.org/2000/svg">
<path d="M23.5756 4.3758L9.4756 18.4758C9.3631 18.5883 9.2998 18.741 9.2998 18.9V43.2C9.2998 43.5312 9.5686 43.8 9.8998 43.8H38.0998C38.431 43.8 38.6998 43.5312 38.6998 43.2V18.9C38.6998 18.741 38.6365 18.5883 38.524 18.4758L24.424 4.3758C24.1897 4.1415 23.8096 4.1415 23.5756 4.3758ZM32.9998 42.6H26.9998V31.8H32.9998V42.6ZM37.4998 42.6H34.1998V31.2C34.1998 30.8688 33.931 30.6 33.5998 30.6H26.3998C26.0686 30.6 25.7998 30.8688 25.7998 31.2V42.6H10.4998V19.1487L23.9998 5.6487L37.4998 19.1487V42.6Z" fill="black"/>
<path d="M21.5998 31.2H14.3998C14.0686 31.2 13.7998 31.4688 13.7998 31.8V39C13.7998 39.3312 14.0686 39.6 14.3998 39.6H21.5998C21.931 39.6 22.1998 39.3312 22.1998 39V31.8C22.1998 31.4688 21.931 31.2 21.5998 31.2ZM20.9998 38.4H14.9998V32.4H20.9998V38.4Z" fill="black"/>
<path d="M21.5998 18.9H14.3998C14.0686 18.9 13.7998 19.1688 13.7998 19.5V26.7C13.7998 27.0312 14.0686 27.3 14.3998 27.3H21.5998C21.931 27.3 22.1998 27.0312 22.1998 26.7V19.5C22.1998 19.1688 21.931 18.9 21.5998 18.9ZM20.9998 26.1H14.9998V20.1H20.9998V26.1Z" fill="black"/>
<path d="M25.7998 19.5V26.7C25.7998 27.0312 26.0686 27.3 26.3998 27.3H33.5998C33.931 27.3 34.1998 27.0312 34.1998 26.7V19.5C34.1998 19.1688 33.931 18.9 33.5998 18.9H26.3998C26.0686 18.9 25.7998 19.1688 25.7998 19.5ZM26.9998 20.1H32.9998V26.1H26.9998V20.1Z" fill="black"/>
<path d="M21 13.35C21 15.0042 22.3458 16.35 24 16.35C25.6542 16.35 27 15.0042 27 13.35C27 11.6958 25.6542 10.35 24 10.35C22.3458 10.35 21 11.6958 21 13.35ZM25.8 13.35C25.8 14.3427 24.9927 15.15 24 15.15C23.0073 15.15 22.2 14.3427 22.2 13.35C22.2 12.3573 23.0073 11.55 24 11.55C24.9927 11.55 25.8 12.3573 25.8 13.35Z" fill="black"/>
</svg>
