<svg width="20" height="20" viewBox="0 0 20 20" fill="none" xmlns="http://www.w3.org/2000/svg">
<path d="M8.2831 11.7168C8.1271 11.5608 7.8735 11.5608 7.7175 11.7168L5.1999 14.2344V12C5.1999 11.7792 5.0207 11.6 4.7999 11.6C4.5791 11.6 4.3999 11.7792 4.3999 12V15.2C4.3999 15.252 4.4103 15.304 4.4311 15.3528C4.4711 15.4504 4.5495 15.5288 4.6479 15.5696C4.6959 15.5888 4.7479 15.6 4.7999 15.6H7.9999C8.2207 15.6 8.3999 15.4208 8.3999 15.2C8.3999 14.9792 8.2207 14.8 7.9999 14.8H5.7655L8.2823 12.2832C8.4391 12.1264 8.4391 11.8736 8.2831 11.7168Z" fill="#404040"/>
<path d="M15.3529 4.43042C15.3041 4.41122 15.2521 4.40002 15.2001 4.40002H12.0001C11.7793 4.40002 11.6001 4.57922 11.6001 4.80002C11.6001 5.02082 11.7793 5.20002 12.0001 5.20002H14.2345L11.7177 7.71682C11.5617 7.87282 11.5617 8.12642 11.7177 8.28242C11.7953 8.36082 11.8977 8.40002 12.0001 8.40002C12.1025 8.40002 12.2049 8.36082 12.2833 8.28322L14.8001 5.76562V8.00002C14.8001 8.22082 14.9793 8.40002 15.2001 8.40002C15.4209 8.40002 15.6001 8.22082 15.6001 8.00002V4.80002C15.6001 4.74802 15.5897 4.69602 15.5689 4.64722C15.5289 4.54962 15.4505 4.47122 15.3529 4.43042Z" fill="#404040"/>
<path d="M16 2H4C2.8976 2 2 2.8968 2 4V16C2 17.1032 2.8976 18 4 18H16C17.1024 18 18 17.1032 18 16V4C18 2.8968 17.1024 2 16 2ZM17.2 16C17.2 16.6616 16.6616 17.2 16 17.2H4C3.3384 17.2 2.8 16.6616 2.8 16V4C2.8 3.3384 3.3384 2.8 4 2.8H16C16.6616 2.8 17.2 3.3384 17.2 4V16Z" fill="#404040"/>
</svg>
