<svg width="24" height="24" viewBox="0 0 24 24" fill="none" xmlns="http://www.w3.org/2000/svg">
<path d="M12.1016 11C13.6127 11 14.9211 10.458 15.9904 9.38863C17.0594 8.31943 17.6016 7.0112 17.6016 5.49983C17.6016 3.98898 17.0596 2.68057 15.9902 1.61103C14.9209 0.542003 13.6125 0 12.1016 0C10.5902 0 9.28205 0.542003 8.21289 1.6112C7.14372 2.6804 6.60156 3.9888 6.60156 5.49983C6.60156 7.0112 7.14372 8.3196 8.21289 9.3888C9.2824 10.4578 10.5908 11 12.1016 11ZM9.15923 2.5574C9.97961 1.73699 10.942 1.3382 12.1016 1.3382C13.261 1.3382 14.2235 1.73699 15.0441 2.5574C15.8645 3.37798 16.2634 4.34056 16.2634 5.49983C16.2634 6.65944 15.8645 7.62184 15.0441 8.44243C14.2235 9.26301 13.261 9.66181 12.1016 9.66181C10.9423 9.66181 9.97996 9.26284 9.15923 8.44243C8.33867 7.62202 7.93972 6.65944 7.93972 5.49983C7.93972 4.34056 8.33867 3.37798 9.15923 2.5574Z" fill="#181818"/>
<path d="M21.5555 17.0837C21.5248 16.6691 21.4626 16.2168 21.371 15.7392C21.2786 15.258 21.1595 14.8031 21.0171 14.3874C20.8697 13.9577 20.6698 13.5333 20.4222 13.1267C20.1655 12.7046 19.8639 12.337 19.5255 12.0346C19.1715 11.7182 18.7382 11.4638 18.2371 11.2783C17.7378 11.0937 17.1844 11.0002 16.5924 11.0002C16.3599 11.0002 16.1351 11.0893 15.7009 11.3534C15.4337 11.5162 15.1211 11.7046 14.7722 11.9128C14.4739 12.0904 14.0698 12.2568 13.5706 12.4075C13.0836 12.5547 12.5891 12.6294 12.1009 12.6294C11.613 12.6294 11.1185 12.5547 10.6311 12.4075C10.1325 12.257 9.72817 12.0906 9.43037 11.913C9.08478 11.7067 8.77204 11.5184 8.50082 11.3533C8.06697 11.0891 7.84214 11 7.60966 11C7.01753 11 6.46432 11.0937 5.96514 11.2784C5.4644 11.4636 5.0309 11.718 4.67663 12.0348C4.33817 12.3374 4.03654 12.7047 3.78009 13.1267C3.53285 13.5333 3.33269 13.9575 3.18535 14.3876C3.04306 14.8033 2.92404 15.258 2.8316 15.7392C2.73987 16.2161 2.67784 16.6686 2.64708 17.0842C2.61685 17.4905 2.60156 17.9134 2.60156 18.3407C2.60156 19.4514 2.97946 20.3506 3.72467 21.0138C4.46066 21.6682 5.43434 22 6.61878 22H17.5843C18.7684 22 19.7421 21.6682 20.4783 21.0138C21.2237 20.3511 21.6016 19.4516 21.6016 18.3405C21.6014 17.9118 21.5859 17.4889 21.5555 17.0837ZM19.5581 20.1104C19.0718 20.5428 18.4262 20.7531 17.5842 20.7531H6.61878C5.77663 20.7531 5.13098 20.5428 4.64483 20.1105C4.1679 19.6863 3.93612 19.1073 3.93612 18.3407C3.93612 17.942 3.95019 17.5483 3.97834 17.1704C4.00579 16.7996 4.06191 16.3923 4.14514 15.9595C4.22732 15.532 4.33192 15.1309 4.45632 14.7678C4.57568 14.4195 4.73848 14.0747 4.94038 13.7426C5.13307 13.426 5.35477 13.1544 5.5994 12.9356C5.82823 12.7309 6.11665 12.5633 6.4565 12.4377C6.77081 12.3214 7.12404 12.2578 7.5075 12.2482C7.55424 12.2714 7.63746 12.3158 7.77229 12.3979C8.04664 12.565 8.36286 12.7555 8.71244 12.9642C9.1065 13.1989 9.61419 13.4109 10.2207 13.5939C10.8408 13.7812 11.4733 13.8763 12.101 13.8763C12.7288 13.8763 13.3614 13.7812 13.9812 13.594C14.5882 13.4107 15.0958 13.1989 15.4903 12.9638C15.8481 12.7502 16.1554 12.5651 16.4298 12.3979C16.5646 12.3159 16.6478 12.2714 16.6946 12.2482C17.0782 12.2578 17.4314 12.3214 17.7459 12.4377C18.0856 12.5633 18.374 12.731 18.6029 12.9356C18.8475 13.1543 19.0692 13.4258 19.2619 13.7427C19.4639 14.0747 19.6269 14.4197 19.7461 14.7676C19.8707 15.1312 19.9755 15.5322 20.0575 15.9593C20.1405 16.3929 20.1968 16.8004 20.2243 17.1705V17.1709C20.2526 17.5473 20.2668 17.9408 20.267 18.3407C20.2668 19.1074 20.0351 19.6863 19.5581 20.1104Z" fill="#181818"/>
</svg>
