<svg width="23" height="21" viewBox="0 0 23 21" fill="none" xmlns="http://www.w3.org/2000/svg">
<path d="M5.81459 20.1161C4.66454 20.1165 3.54023 19.7757 2.58394 19.1368C1.62764 18.498 0.882323 17.5898 0.442304 16.5273C0.00228412 15.4648 -0.112666 14.2956 0.111998 13.1677C0.336663 12.0398 0.890844 11.0039 1.70442 10.1911L10.2837 1.61077C10.426 1.46851 10.6189 1.38858 10.8201 1.38858C11.0213 1.38858 11.2142 1.46851 11.3565 1.61077C11.4988 1.75303 11.5787 1.94597 11.5787 2.14716C11.5787 2.34835 11.4988 2.54129 11.3565 2.68356L2.7762 11.2628C2.3608 11.6581 2.02872 12.1326 1.79953 12.6582C1.57034 13.1839 1.44866 13.75 1.44168 14.3234C1.4347 14.8968 1.54254 15.4658 1.75886 15.9969C1.97519 16.5279 2.29561 17.0103 2.70125 17.4156C3.1069 17.8209 3.58956 18.141 4.1208 18.3568C4.65204 18.5727 5.22112 18.6801 5.7945 18.6726C6.36788 18.6652 6.93397 18.543 7.45941 18.3134C7.98486 18.0838 8.45903 17.7513 8.85399 17.3356L19.9358 6.25379C20.4436 5.72939 20.7249 5.02639 20.7191 4.29643C20.7132 3.56647 20.4206 2.86807 19.9044 2.35189C19.3883 1.83572 18.6899 1.54314 17.9599 1.53728C17.2299 1.53142 16.5269 1.81275 16.0025 2.32057L7.06634 11.2628C6.82929 11.4999 6.69611 11.8214 6.69611 12.1567C6.69611 12.4919 6.82929 12.8134 7.06634 13.0505C7.3034 13.2875 7.62492 13.4207 7.96017 13.4207C8.29541 13.4207 8.61693 13.2875 8.85399 13.0505L14.5718 7.33163C14.6417 7.25917 14.7254 7.20136 14.8179 7.16158C14.9104 7.12179 15.0099 7.10082 15.1106 7.0999C15.2113 7.09898 15.3111 7.11812 15.4044 7.15621C15.4976 7.19429 15.5823 7.25056 15.6535 7.32173C15.7247 7.3929 15.7811 7.47754 15.8193 7.57072C15.8574 7.66389 15.8767 7.76374 15.8758 7.86443C15.875 7.96512 15.8541 8.06464 15.8144 8.15718C15.7747 8.24972 15.717 8.33342 15.6446 8.40341L9.92577 14.1233C9.40432 14.6448 8.69704 14.9379 7.95951 14.938C7.22198 14.9381 6.51463 14.6452 5.99305 14.1238C5.47147 13.6023 5.1784 12.895 5.1783 12.1575C5.17821 11.42 5.4711 10.7126 5.99254 10.1911L14.9308 1.2589C15.7366 0.452934 16.8296 9.4825e-05 17.9693 1.48906e-08C19.109 -9.47952e-05 20.2021 0.452563 21.0081 1.25839C21.814 2.06422 22.2669 3.15722 22.267 4.29693C22.267 5.43664 21.8144 6.52971 21.0086 7.33568L9.92678 18.4134C9.38793 18.955 8.74704 19.3843 8.04119 19.6766C7.33534 19.9688 6.57855 20.1182 5.81459 20.1161Z" fill="#181818"/>
</svg>
