<svg width="21" height="20" viewBox="0 0 21 20" fill="none" xmlns="http://www.w3.org/2000/svg">
<path d="M13.2589 7.24609C13.0002 7.24609 12.7905 7.45577 12.7905 7.71448V16.5669C12.7905 16.8254 13.0002 17.0353 13.2589 17.0353C13.5176 17.0353 13.7273 16.8254 13.7273 16.5669V7.71448C13.7273 7.45577 13.5176 7.24609 13.2589 7.24609Z" fill="#3656D2"/>
<path d="M7.73157 7.24609C7.47286 7.24609 7.26318 7.45577 7.26318 7.71448V16.5669C7.26318 16.8254 7.47286 17.0353 7.73157 17.0353C7.99027 17.0353 8.19995 16.8254 8.19995 16.5669V7.71448C8.19995 7.45577 7.99027 7.24609 7.73157 7.24609Z" fill="#3656D2"/>
<path d="M3.70382 5.95419V17.4942C3.70382 18.1762 3.95393 18.8168 4.39084 19.2764C4.82574 19.7373 5.43098 19.9989 6.06439 20H14.9263C15.5599 19.9989 16.1652 19.7373 16.5999 19.2764C17.0368 18.8168 17.2869 18.1762 17.2869 17.4942V5.95419C18.1554 5.72366 18.7182 4.8846 18.602 3.99339C18.4857 3.10236 17.7266 2.43583 16.8279 2.43565H14.4298V1.85017C14.4325 1.35782 14.2379 0.885049 13.8893 0.537238C13.5408 0.18961 13.0673 -0.00396362 12.5749 6.15416e-05H8.41582C7.92347 -0.00396362 7.44996 0.18961 7.10142 0.537238C6.75288 0.885049 6.55821 1.35782 6.56095 1.85017V2.43565H4.16287C3.26416 2.43583 2.50505 3.10236 2.38869 3.99339C2.27251 4.8846 2.8353 5.72366 3.70382 5.95419ZM14.9263 19.0632H6.06439C5.26357 19.0632 4.64058 18.3753 4.64058 17.4942V5.99536H16.3501V17.4942C16.3501 18.3753 15.7272 19.0632 14.9263 19.0632ZM7.49772 1.85017C7.49461 1.60628 7.59048 1.37154 7.76356 1.19938C7.93646 1.02721 8.17175 0.932619 8.41582 0.936827H12.5749C12.819 0.932619 13.0543 1.02721 13.2272 1.19938C13.4003 1.37136 13.4961 1.60628 13.493 1.85017V2.43565H7.49772V1.85017ZM4.16287 3.37242H16.8279C17.2935 3.37242 17.671 3.74987 17.671 4.21551C17.671 4.68114 17.2935 5.05859 16.8279 5.05859H4.16287C3.69723 5.05859 3.31978 4.68114 3.31978 4.21551C3.31978 3.74987 3.69723 3.37242 4.16287 3.37242Z" fill="#3656D2"/>
<path d="M10.4952 7.24609C10.2365 7.24609 10.0269 7.45577 10.0269 7.71448V16.5669C10.0269 16.8254 10.2365 17.0353 10.4952 17.0353C10.7539 17.0353 10.9636 16.8254 10.9636 16.5669V7.71448C10.9636 7.45577 10.7539 7.24609 10.4952 7.24609Z" fill="#3656D2"/>
</svg>
