<svg width="24" height="24" viewBox="0 0 24 24" fill="none" xmlns="http://www.w3.org/2000/svg">
<g clip-path="url(#clip0_237_20077)">
<path d="M23.2493 11.25H13.7495C13.3355 11.25 12.9995 10.914 12.9995 10.5C12.9995 10.086 13.3355 9.75 13.7495 9.75H23.2493C23.6632 9.75 23.9992 10.086 23.9992 10.5C23.9992 10.914 23.6632 11.25 23.2493 11.25Z" fill="#3656D2"/>
<path d="M19.4994 15.0005C19.3074 15.0005 19.1155 14.9275 18.9694 14.7806C18.6764 14.4875 18.6764 14.0125 18.9694 13.7196L22.1893 10.4998L18.9694 7.27976C18.6764 6.9868 18.6764 6.51184 18.9694 6.21888C19.2625 5.92574 19.7375 5.92574 20.0304 6.21888L23.7803 9.96876C24.0733 10.2617 24.0733 10.7367 23.7803 11.0296L20.0304 14.7795C19.8834 14.9275 19.6915 15.0005 19.4994 15.0005Z" fill="#3656D2"/>
<path d="M7.99981 24.0002C7.78577 24.0002 7.58271 23.9702 7.37983 23.9072L1.3619 21.9023C0.543074 21.6163 0 20.8533 0 20.0004V2.00098C0 0.897982 0.897006 0.000976562 2 0.000976562C2.21386 0.000976562 2.41692 0.0310049 2.61997 0.0939912L8.63773 2.09893C9.45673 2.38494 9.99963 3.14791 9.99963 4.00079V22.0002C9.99963 23.1032 9.1028 24.0002 7.99981 24.0002ZM2 1.50093C1.72498 1.50093 1.49995 1.72596 1.49995 2.00098V20.0004C1.49995 20.2134 1.64295 20.4113 1.84693 20.4823L7.83667 22.4783C7.8797 22.4922 7.93573 22.5003 7.99981 22.5003C8.27483 22.5003 8.49967 22.2752 8.49967 22.0002V4.00079C8.49967 3.78785 8.35667 3.58991 8.1527 3.51887L2.16296 1.5229C2.11993 1.50899 2.0639 1.50093 2 1.50093Z" fill="#3656D2"/>
<path d="M15.2494 8.00079C14.8355 8.00079 14.4995 7.6648 14.4995 7.25081V2.75095C14.4995 2.06195 13.9386 1.50093 13.2496 1.50093H1.99998C1.58599 1.50093 1.25 1.16494 1.25 0.750953C1.25 0.336965 1.58599 0.000976562 1.99998 0.000976562H13.2496C14.7666 0.000976562 15.9994 1.23397 15.9994 2.75095V7.25081C15.9994 7.6648 15.6634 8.00079 15.2494 8.00079Z" fill="#3656D2"/>
<path d="M13.2496 20.9998H9.24961C8.83562 20.9998 8.49963 20.6638 8.49963 20.2498C8.49963 19.8358 8.83562 19.4999 9.24961 19.4999H13.2496C13.9386 19.4999 14.4994 18.9388 14.4994 18.2498V13.75C14.4994 13.336 14.8354 13 15.2494 13C15.6634 13 15.9994 13.336 15.9994 13.75V18.2498C15.9994 19.7668 14.7666 20.9998 13.2496 20.9998Z" fill="#3656D2"/>
</g>
<defs>
<clipPath id="clip0_237_20077">
<rect width="24" height="24" fill="white"/>
</clipPath>
</defs>
</svg>
