<svg width="24" height="24" viewBox="0 0 24 24" fill="none" xmlns="http://www.w3.org/2000/svg">
<path d="M20.0654 9.55178L10.9176 18.5981C9.40186 20.0971 6.94413 20.0971 5.42839 18.5981C3.91266 17.099 3.91266 14.6689 5.42839 13.1699L13.6619 5.02833C14.6726 4.02917 16.3104 4.02917 17.3212 5.02833C18.3319 6.02746 18.3319 7.64796 17.3212 8.6471L9.08765 16.7887C8.58262 17.2886 7.76338 17.2886 7.2577 16.7887C6.75267 16.2895 6.75267 15.4792 7.2577 14.9793L14.5762 7.74239L13.6612 6.83771L6.34338 14.0753C5.33268 15.0744 5.33268 16.6949 6.34338 17.694C7.35409 18.6932 8.99193 18.6932 10.0026 17.694L18.2362 9.55242C19.7519 8.0534 19.7519 5.62332 18.2362 4.12427C16.7204 2.62524 14.2627 2.62524 12.747 4.12427L4.05594 12.7182L4.08743 12.7497C2.5087 14.7569 2.64749 17.6587 4.51343 19.5034C6.37937 21.3481 9.31255 21.4862 11.343 19.9242L11.3744 19.9557L20.9798 10.4571L20.0654 9.55178Z" fill="#9C9CA3"/>
</svg>
