<svg width="48" height="48" viewBox="0 0 48 48" fill="none" xmlns="http://www.w3.org/2000/svg">
<g clip-path="url(#clip0_542_27840)">
<path d="M24 48C37.2548 48 48 37.2548 48 24C48 10.7452 37.2548 0 24 0C10.7452 0 0 10.7452 0 24C0 37.2548 10.7452 48 24 48Z" fill="#BBEC6C"/>
<path d="M24.0001 0C23.5134 0 23.0305 0.0162253 22.5509 0.0448129C35.1306 0.794366 44.4855 11.2319 44.4855 24C44.4855 36.7681 35.1306 47.2056 22.5508 47.9552C23.0305 47.9838 23.5134 48 24.0001 48C37.255 48 48.0001 37.2549 48.0001 24C48.0001 10.7451 37.255 0 24.0001 0Z" fill="#A2E62E"/>
<path d="M24 44.4854C35.3138 44.4854 44.4854 35.3138 44.4854 24C44.4854 12.6863 35.3138 3.51465 24 3.51465C12.6863 3.51465 3.51465 12.6863 3.51465 24C3.51465 35.3138 12.6863 44.4854 24 44.4854Z" fill="#4FC123"/>
<path d="M24.0001 3.51465C23.5127 3.51465 23.0296 3.5329 22.5508 3.56632C33.1881 4.30998 41.5869 13.1737 41.5869 24C41.5869 34.8265 33.1881 43.6901 22.5508 44.4337C23.0296 44.4672 23.5127 44.4854 24.0001 44.4854C35.3139 44.4854 44.4854 35.3137 44.4854 24C44.4854 12.6863 35.3139 3.51465 24.0001 3.51465Z" fill="#47A920"/>
<path d="M36.3911 19.8812L23.3152 32.958C21.9283 34.3439 19.6819 34.3439 18.296 32.958L11.6088 26.2709C10.84 25.5031 10.84 24.2572 11.6088 23.4894L13.5578 21.5404V21.5394L14.2184 20.8788C14.9862 20.111 16.2321 20.111 16.9999 20.8788L20.3464 24.2253C20.7056 24.5856 21.2899 24.5856 21.6492 24.2253L31.1922 14.6823C31.96 13.9145 33.2059 13.9145 33.9737 14.6823L36.3911 17.0997C37.1599 17.8685 37.1599 19.1134 36.3911 19.8812Z" fill="#D1F19E"/>
<path d="M21.649 24.2251L20.5413 25.3328C20.1047 25.7703 19.3968 25.7732 18.9554 25.3396L15.5684 22.0144C15.0247 21.4697 14.2414 21.3132 13.5576 21.5402V21.5392L14.2182 20.8786C14.986 20.1108 16.2319 20.1108 16.9997 20.8786L20.3462 24.2251C20.7055 24.5853 21.2898 24.5853 21.649 24.2251Z" fill="#BBEC6C"/>
<path d="M36.3917 17.1001L33.9741 14.6825C33.206 13.9144 31.9607 13.9144 31.1926 14.6825L30.5675 15.3076C31.1302 15.2551 31.7111 15.444 32.1419 15.8749L33.493 17.1002C34.2611 17.8683 34.2611 19.1136 33.493 19.8817L21.5009 32.0312C20.6448 32.8874 19.4599 33.2139 18.3525 33.0122C19.7424 34.3432 21.9475 34.3259 23.315 32.9584L36.3917 19.8817C37.1597 19.1136 37.1597 17.8682 36.3917 17.1001Z" fill="#BBEC6C"/>
</g>
<defs>
<clipPath id="clip0_542_27840">
<rect width="48" height="48" fill="white"/>
</clipPath>
</defs>
</svg>
