<svg width="24" height="24" viewBox="0 0 24 24" fill="none" xmlns="http://www.w3.org/2000/svg">
<g clip-path="url(#clip0_545_27976)">
<path d="M10.0348 23.5218C11.2881 23.5218 12.3041 22.5059 12.3041 21.2526C12.3041 19.9994 11.2881 18.9834 10.0348 18.9834C8.78159 18.9834 7.76562 19.9994 7.76562 21.2526C7.76562 22.5059 8.78159 23.5218 10.0348 23.5218Z" fill="#454565"/>
<path d="M16.9235 23.5218C18.1768 23.5218 19.1927 22.5059 19.1927 21.2526C19.1927 19.9994 18.1768 18.9834 16.9235 18.9834C15.6703 18.9834 14.6543 19.9994 14.6543 21.2526C14.6543 22.5059 15.6703 23.5218 16.9235 23.5218Z" fill="#454565"/>
<path d="M13.5014 5.10887C9.86202 5.10887 6.6014 5.49746 4.59656 5.80402L3.76312 1.97809C3.57421 1.10996 2.79187 0.479492 1.90312 0.479492H1.0889C0.51515 0.479492 0.0267128 0.925273 0.00655653 1.49855C-0.015006 2.10043 0.4664 2.59496 1.06359 2.59496H1.73203L2.63999 6.76355C3.13218 9.13168 4.11093 13.5051 4.41046 14.5687C4.98234 16.4878 6.75281 17.9423 8.64281 18.0492C9.79171 18.1129 11.3578 18.1401 13.5009 18.1387C15.6441 18.1401 17.2101 18.1125 18.3591 18.0492C20.2486 17.9418 22.0195 16.4878 22.5914 14.5687C22.8272 13.7325 23.46 10.8496 23.9555 8.50496C24.2302 7.20652 23.3522 5.94699 22.0392 5.7534C20.0287 5.45668 16.9411 5.10934 13.5009 5.10934L13.5014 5.10887Z" fill="#4193D2"/>
<path d="M18.4105 5.32871C16.9312 5.1998 15.2624 5.10887 13.5009 5.10887C9.86148 5.10887 6.60086 5.49746 4.59602 5.80402L3.76258 1.97809C3.57367 1.10996 2.79133 0.479492 1.90258 0.479492H1.08883C0.531484 0.479492 0.0542969 0.900899 0.00976562 1.45074V1.62184C0.0528906 2.16605 0.508516 2.59449 1.06398 2.59449H1.73242L2.64039 6.76309C3.13258 9.13121 4.11133 13.5046 4.41086 14.5682C4.51539 14.9189 4.66023 15.2536 4.83789 15.5676C5.13086 15.5873 5.42664 15.5976 5.72477 15.5976C11.9615 15.5976 17.1688 11.1946 18.411 5.32824L18.4105 5.32871Z" fill="#48A4DF"/>
</g>
<defs>
<clipPath id="clip0_545_27976">
<rect width="24" height="24" fill="white"/>
</clipPath>
</defs>
</svg>
