<svg width="24" height="24" viewBox="0 0 24 24" fill="none" xmlns="http://www.w3.org/2000/svg">
<g clip-path="url(#clip0_545_27968)">
<path d="M23.4872 4.83374C23.0358 2.79561 21.06 0.92858 19.0163 0.532017C17.7708 0.283111 14.2969 -0.0243891 12 -0.000482856C9.70312 -0.0257954 6.22969 0.280767 4.98422 0.530611C2.94047 0.92858 0.964687 2.79561 0.515625 4.83374C0.256406 6.07124 0.00375 7.75499 0 10.0533C0.00375 12.3501 0.256406 14.0344 0.515625 15.2723C0.967031 17.3105 2.94281 19.1775 4.98656 19.574C5.65875 19.7081 6.98109 19.86 8.41641 19.9669C8.57891 20.2222 8.75547 20.494 8.94609 20.7825C9.70781 21.9365 10.2905 22.7405 10.7325 23.3006C11.4675 24.2325 12.5372 24.2325 13.2722 23.3006C13.7142 22.7405 14.2969 21.9365 15.0586 20.7825C15.2492 20.4944 15.4258 20.2225 15.5883 19.9669C17.0241 19.86 18.3459 19.7081 19.0186 19.574C21.0623 19.1775 23.0381 17.3105 23.4895 15.2723C23.7464 14.0344 23.9986 12.3511 24.0028 10.0533C23.9962 7.75452 23.7441 6.0717 23.4872 4.83374Z" fill="#639104"/>
<path d="M12 -0.000482856C9.70312 -0.0257954 6.22969 0.280767 4.98422 0.530611C2.94047 0.92858 0.964687 2.79561 0.515625 4.83374C0.256406 6.07124 0.00375 7.75499 0 10.0533C0.00375 12.3501 0.256406 14.0344 0.515625 15.2723C0.781406 16.4719 1.57547 17.6123 2.60063 18.4284C3.60061 18.6678 4.62534 18.7885 5.65359 18.788C12.855 18.788 18.6928 12.9501 18.6928 5.7492C18.6945 3.87387 18.2899 2.02044 17.5069 0.316392C15.9052 0.136392 13.6495 -0.0173579 12 -0.000482856Z" fill="#6D9E07"/>
<path d="M13.3255 17.022C13.2944 17.168 13.2217 17.3018 13.1161 17.4074C13.0106 17.5129 12.8767 17.5857 12.7307 17.6168C12.2465 17.6912 11.7538 17.6912 11.2696 17.6168C11.1236 17.5857 10.9897 17.513 10.8841 17.4074C10.7785 17.3019 10.7058 17.168 10.6748 17.022C10.5998 16.5377 10.5998 16.0447 10.6748 15.5604C10.7058 15.4144 10.7785 15.2805 10.8841 15.1749C10.9897 15.0693 11.1236 14.9966 11.2696 14.9655C11.7538 14.8912 12.2465 14.8912 12.7307 14.9655C12.8769 14.9968 13.011 15.0698 13.1166 15.1757C13.2222 15.2816 13.2947 15.4159 13.3255 15.5623C13.4005 16.0466 13.4005 16.5395 13.3255 17.0238V17.022ZM16.1793 9.3443C15.8174 9.85617 15.2751 10.3235 14.4726 10.8143C13.4568 11.4405 13.2941 11.6979 13.2941 12.2018V12.401C13.2974 12.5733 13.2663 12.7444 13.2027 12.9045C13.139 13.0646 13.0441 13.2104 12.9234 13.3334C12.8028 13.4564 12.6588 13.554 12.5 13.6207C12.3411 13.6874 12.1706 13.7218 11.9983 13.7218C11.826 13.7218 11.6554 13.6874 11.4966 13.6207C11.3377 13.554 11.1938 13.4564 11.0731 13.3334C10.9525 13.2104 10.8575 13.0646 10.7939 12.9045C10.7302 12.7444 10.6991 12.5733 10.7024 12.401V11.9393C10.7024 11.3449 10.851 10.8405 11.1566 10.3976C11.4529 9.9682 11.8973 9.58664 12.5554 9.19523C13.769 8.48133 13.9912 8.08055 13.9912 7.54852C13.9912 6.88008 13.4216 6.44789 12.538 6.44789C11.5729 6.44789 10.9443 6.88664 10.6701 7.75242C10.5812 8.03095 10.4057 8.27378 10.169 8.44547C9.93242 8.61717 9.64711 8.70873 9.35476 8.7068C9.32101 8.7068 9.28679 8.7068 9.25351 8.70305C9.04349 8.68825 8.83962 8.62565 8.65749 8.52004C8.47535 8.41443 8.31975 8.26859 8.20257 8.09367C8.0855 7.92186 8.00926 7.72556 7.97969 7.51977C7.95011 7.31398 7.96799 7.10415 8.03195 6.90633C8.31319 6.00483 8.89 5.22441 9.66929 4.69102C10.4549 4.1557 11.4473 3.87305 12.538 3.87305C13.671 3.87305 14.7224 4.23445 15.4987 4.8907C16.2979 5.5657 16.7376 6.49711 16.7376 7.51289C16.7399 8.21133 16.5566 8.81227 16.1793 9.3443Z" fill="white"/>
</g>
<defs>
<clipPath id="clip0_545_27968">
<rect width="24" height="24" fill="white"/>
</clipPath>
</defs>
</svg>
