<svg width="28" height="28" viewBox="0 0 28 28" fill="none" xmlns="http://www.w3.org/2000/svg">
<path d="M24.115 11.2175C23.695 5.99375 19.3288 1.8725 14 1.8725C8.67125 1.8725 4.305 5.99375 3.885 11.2175C2.17875 11.5325 0.875 13.0287 0.875 14.8225V16.1525C0.875 18.1825 2.52 19.8275 4.55 19.8275H6.09C6.57125 19.8275 6.965 19.4337 6.965 18.9525V12.0225C6.965 11.5412 6.57125 11.1475 6.09 11.1475H5.635C6.08125 6.92125 9.66 3.6225 13.9913 3.6225C18.3225 3.6225 21.91 6.92125 22.3475 11.1475H21.8925C21.4113 11.1475 21.0175 11.5412 21.0175 12.0225V18.9525C21.0175 19.4337 21.4113 19.8275 21.8925 19.8275H22.0413V20.0462C22.0413 21.5425 20.825 22.7675 19.32 22.7675H17.2987C17.2725 21.875 16.5375 21.1575 15.6363 21.1575H11.9437C11.025 21.1575 10.2812 21.9012 10.2812 22.82V24.465C10.2812 25.3837 11.025 26.1275 11.9437 26.1275H15.6363C16.5375 26.1275 17.2725 25.41 17.2987 24.5175H19.32C21.7875 24.5175 23.7913 22.5137 23.7913 20.0462V19.7925C25.655 19.6087 27.1162 18.06 27.1162 16.1525V14.8225C27.1162 13.02 25.8125 11.5325 24.1062 11.2175H24.115ZM5.215 18.0775H4.55C3.49125 18.0775 2.625 17.2112 2.625 16.1525V14.8225C2.625 13.7637 3.49125 12.8975 4.55 12.8975H4.68125C4.68125 12.8975 4.69875 12.8975 4.71625 12.8975C4.73375 12.8975 4.7425 12.8975 4.75125 12.8975H5.215V18.0775ZM15.5663 24.3775H12.04V22.8987H15.5663V24.3775ZM25.375 16.1525C25.375 17.2112 24.5087 18.0775 23.45 18.0775H22.9513C22.9513 18.0775 22.9338 18.0775 22.925 18.0775C22.9163 18.0775 22.9075 18.0775 22.8988 18.0775H22.7763V12.8975H23.24C23.24 12.8975 23.2575 12.8975 23.275 12.8975C23.2925 12.8975 23.3012 12.8975 23.31 12.8975H23.4412C24.5 12.8975 25.3662 13.7637 25.3662 14.8225V16.1525H25.375Z" fill="#181818"/>
</svg>
