<svg width="28" height="28" viewBox="0 0 28 28" fill="none" xmlns="http://www.w3.org/2000/svg">
<path d="M14 3.79167C13.5168 3.79167 13.125 4.18343 13.125 4.66667C13.125 5.14992 13.5168 5.54167 14 5.54167C18.6715 5.54167 22.4583 9.3286 22.4583 14C22.4583 18.6715 18.6715 22.4583 14 22.4583C13.5168 22.4583 13.125 22.8501 13.125 23.3333C13.125 23.8166 13.5168 24.2083 14 24.2083C19.6379 24.2083 24.2083 19.6379 24.2083 14C24.2083 8.3621 19.6379 3.79167 14 3.79167Z" fill="#181818"/>
<path d="M12.2145 11.1187C11.8728 10.777 11.8728 10.223 12.2145 9.88129C12.5562 9.53959 13.1101 9.53959 13.4519 9.88129L16.9519 13.3813C17.2936 13.723 17.2936 14.277 16.9519 14.6187L13.4519 18.1187C13.1101 18.4604 12.5562 18.4604 12.2145 18.1187C11.8728 17.777 11.8728 17.223 12.2145 16.8813L14.2207 14.875H4.6665C4.18326 14.875 3.7915 14.4832 3.7915 14C3.7915 13.5168 4.18326 13.125 4.6665 13.125H14.2207L12.2145 11.1187Z" fill="#181818"/>
</svg>
