<svg width="21" height="21" viewBox="0 0 21 21" fill="none" xmlns="http://www.w3.org/2000/svg">
<path d="M10.2085 0C10.6917 0 11.0835 0.391755 11.0835 0.875C11.0835 1.35825 10.6917 1.75 10.2085 1.75C5.53705 1.75 1.75016 5.53693 1.75016 10.2083C1.75016 14.8798 5.53705 18.6667 10.2085 18.6667C10.6917 18.6667 11.0835 19.0584 11.0835 19.5417C11.0835 20.0249 10.6917 20.4167 10.2085 20.4167C4.57058 20.4167 0.000162125 15.8463 0.000162125 10.2083C0.000162125 4.57043 4.57058 0 10.2085 0Z" fill="#181818"/>
<path d="M11.994 7.32706C12.3357 6.98535 12.3357 6.43133 11.994 6.08962C11.6523 5.74792 11.0984 5.74792 10.7566 6.08962L7.25664 9.58966C6.91492 9.93137 6.91492 10.4853 7.25664 10.827L10.7566 14.327C11.0984 14.6687 11.6523 14.6687 11.994 14.327C12.3357 13.9853 12.3357 13.4314 11.994 13.0897L9.98781 11.0833H19.542C20.0252 11.0833 20.417 10.6916 20.417 10.2083C20.417 9.72511 20.0252 9.33334 19.542 9.33334H9.98781L11.994 7.32706Z" fill="#181818"/>
</svg>
