<svg width="28" height="28" viewBox="0 0 28 28" fill="none" xmlns="http://www.w3.org/2000/svg">
<path d="M24.2105 19.0631C23.4782 18.6971 23.0234 17.961 23.0234 17.1424V12.3047C23.0234 8.08926 20.1175 4.54013 16.2039 3.55405C16.3682 3.22443 16.4609 2.85336 16.4609 2.46094C16.4609 1.104 15.3569 0 14 0C12.6431 0 11.5391 1.104 11.5391 2.46094C11.5391 2.85336 11.6318 3.22443 11.7961 3.55405C7.88248 4.54013 4.97656 8.08926 4.97656 12.3047V17.1424C4.97656 17.961 4.52176 18.6971 3.78946 19.0633C2.49768 19.7091 1.69531 21.0073 1.69531 22.4514V24.7188H10.7188C10.7188 26.5281 12.1906 28 14 28C15.8094 28 17.2812 26.5281 17.2812 24.7188H26.3047V22.4514C26.3047 21.0073 25.5023 19.7091 24.2105 19.0631ZM14 1.64062C14.4522 1.64062 14.8203 2.0087 14.8203 2.46094C14.8203 2.91318 14.4522 3.28125 14 3.28125C13.5478 3.28125 13.1797 2.91318 13.1797 2.46094C13.1797 2.0087 13.5478 1.64062 14 1.64062ZM14 26.3594C13.0953 26.3594 12.3594 25.6234 12.3594 24.7188H15.6406C15.6406 25.6234 14.9047 26.3594 14 26.3594ZM24.6641 23.0781H3.33594V22.4514C3.33594 21.6328 3.79074 20.8966 4.52304 20.5305C5.81482 19.8847 6.61719 18.5865 6.61719 17.1422V12.3047C6.61719 8.23389 9.9292 4.92188 14 4.92188C18.0708 4.92188 21.3828 8.23389 21.3828 12.3047V17.1424C21.3828 18.5865 22.1852 19.8847 23.477 20.5307C24.2093 20.8966 24.6641 21.6328 24.6641 22.4514V23.0781Z" fill="#151515"/>
</svg>
