<svg width="28" height="29" viewBox="0 0 28 29" fill="none" xmlns="http://www.w3.org/2000/svg">
<path d="M14 14.5C15.3924 14.5 16.7277 13.9469 17.7123 12.9623C18.6969 11.9777 19.25 10.6424 19.25 9.25C19.25 7.85761 18.6969 6.52226 17.7123 5.53769C16.7277 4.55312 15.3924 4 14 4C12.6076 4 11.2723 4.55312 10.2877 5.53769C9.30312 6.52226 8.75 7.85761 8.75 9.25C8.75 10.6424 9.30312 11.9777 10.2877 12.9623C11.2723 13.9469 12.6076 14.5 14 14.5ZM17.5 9.25C17.5 10.1783 17.1313 11.0685 16.4749 11.7249C15.8185 12.3813 14.9283 12.75 14 12.75C13.0717 12.75 12.1815 12.3813 11.5251 11.7249C10.8687 11.0685 10.5 10.1783 10.5 9.25C10.5 8.32174 10.8687 7.4315 11.5251 6.77513C12.1815 6.11875 13.0717 5.75 14 5.75C14.9283 5.75 15.8185 6.11875 16.4749 6.77513C17.1313 7.4315 17.5 8.32174 17.5 9.25ZM24.5 23.25C24.5 25 22.75 25 22.75 25H5.25C5.25 25 3.5 25 3.5 23.25C3.5 21.5 5.25 16.25 14 16.25C22.75 16.25 24.5 21.5 24.5 23.25ZM22.75 23.243C22.7482 22.8125 22.4805 21.5175 21.294 20.331C20.153 19.19 18.0057 18 14 18C9.9925 18 7.847 19.19 6.706 20.331C5.5195 21.5175 5.2535 22.8125 5.25 23.243H22.75Z" fill="#151515"/>
</svg>
